<svg xmlns="http://www.w3.org/2000/svg" viewBox="0 0 640.3 552.8"><defs><style>.cls-1{fill:#85d4ff;}.cls-2{fill:#fff;}.cls-3{fill:#18083a;}.cls-4{fill:#3368bc;}.cls-5{fill:#7caef7;}.cls-6{fill:#3c7edd;}.cls-7{fill:#ce4025;}.cls-8{fill:#ff8b8b;}.cls-9{fill:#f55;}</style></defs><g id="Layer_2" data-name="Layer 2"><g id="OBJECTS"><path class="cls-1" d="M253.76,551.75s65.14.7,87.44.35,77.88,1.42,89.56.35,14.51-3.54,9.56-10.62-7.79-15.22-52.39-19.47-118.24,3.9-127.44,4.25-10.27,4.25-15.22,10.27S230.4,551.75,253.76,551.75Z"/><path class="cls-2" d="M429.82,477.12c0-3.65,0-32-.31-33.8s-2.13-11.87-3.65-15.22-6.4-19.49-6.4-19.49-22.53.3-29.84-.31S340,407.69,326,408s-59.08.91-59.08.91-5.78,11.27-8.22,17.66a74.32,74.32,0,0,1-7.31,13.4s1.53,7.92,1.83,11.57-.3,18.27.31,25.58-.31,44.45.3,52.37.64,15.49,2.74,16.75c1.52.91,7.92,1.52,7.92,1.52s26.46,0,30.41-.93,93.52.63,95.65.93,29.23.91,34.4-.61,3.66-7.61,3.66-7.61.61-12.79.61-17.66S429.82,480.77,429.82,477.12Z"/><path class="cls-1" d="M255.53,518l5.69-.36,2.56-2,1.1-24.21.55-9.53a3.21,3.21,0,0,0,3.12-.92,5.29,5.29,0,0,0,1.83-2.38h18s1.28,3.3,2.93,3.67l1.65.36-.55,6.42,1.28,1.28-.18,23.48a16.53,16.53,0,0,0,5.5,0c2.38-.55,2-1.29,2-1.29l.36-5.5,8.44-7.88,1.28-.19V512.5l8.44,1.29L319.16,500l6.24-2,1.1-1.84,2.38.55s-.18,1.29.55,1.29,4.95-.74,4.95-.74a3.88,3.88,0,0,0,1.84,2,14.54,14.54,0,0,0,2,.73s.55,8.81.74,9.91-.55,5.86-.37,6.41-.55,4.4.55,4,1.47.91,1.47-1.47a24.4,24.4,0,0,1,.36-4.22s3.67,0,3.49-.55a54.69,54.69,0,0,1,.55-6.23s3.67.73,3.85-4.59-.18-10.82-.18-10.82l1.65-.55s-1.1-2-.55-2,5.86-1.1,5.86-1.1-.55,3.48,1.1,5.5l1.65,2,1.66-6.24,2.93.92,1.65-1.29,4.4,1.47s.18,4.77,1.65,4.4.73-3.67.92-7.88a33,33,0,0,0-1.1-8.81l8.43-1.1s.55,8.81.74,13.21.36,6.23.36,6.23l1.29,2.39A48.48,48.48,0,0,0,380,505.9c-.18,2.2-.36,5.5,1.1,5.14s1.1-2.94,1.1-4,.19-8.43.19-8.43l4.76-.37s-2.38-26.41-1.83-26.41,11.92-2.38,11.55-1.83.55,1.83.55,1.83l5.14.19a9.25,9.25,0,0,0-2.75,5.5c-.19,3.12.73,14.85.73,14.85s2.94.18,3.12,2.2-1.1,5.14-.55,5a17.37,17.37,0,0,0,2.2-1.28l5.5.18s-1.83,4.4.37,4.95a15,15,0,0,0,3.11.55l1.47,2,4-.37,2,.19.74-4.4,1.1-7.52,5.86.18s-1.1,21.27-1.1,25.86.29,16.11.15,19.7,1.87,6.34-4.55,7.62-29.34.92-35.39.73-82.33-.55-85.08-.36-36.5.36-36.5.36-7.7.74-9.53-.73-3.3-4-3.67-9.35-.18-19.44-.18-19.44Z"/><path class="cls-2" d="M267.66,485.36a19.42,19.42,0,0,0,.15,3.05.82.82,0,0,0,1.56,0,20.7,20.7,0,0,0,.14-3.05.93.93,0,0,0-1.85,0Z"/><path class="cls-2" d="M267.86,492.44a3.61,3.61,0,0,0,.38,2.05.88.88,0,0,0,1.51,0,3.79,3.79,0,0,0,.38-2.05,1.14,1.14,0,1,0-2.27,0Z"/><path class="cls-2" d="M268,498.5c0,.22,0,.44,0,.65a3.17,3.17,0,0,0,.17.8.89.89,0,0,0,1.7,0,2.72,2.72,0,0,0,.17-.8c0-.21,0-.43,0-.65a1,1,0,1,0-2.08,0Z"/><path class="cls-2" d="M271,486a4.71,4.71,0,0,0,0,1.63,2.92,2.92,0,0,0,.69,1.34,1.09,1.09,0,0,0,1.21.23,1.14,1.14,0,0,0,.69-1c0-.29,0-.56,0-.84s0-.27,0-.4v-.2c0,.14,0,.12,0,0A1.33,1.33,0,0,0,271,486Z"/><path class="cls-2" d="M271.09,492.65a2.19,2.19,0,0,0,.45,1.93,1.06,1.06,0,0,0,1.24.16,2.3,2.3,0,0,0,1-1.73,1.37,1.37,0,0,0-1.14-1.71,1.34,1.34,0,0,0-1,.27,1.44,1.44,0,0,0-.54,1.08Z"/><path class="cls-2" d="M271.43,498.5a8.72,8.72,0,0,0,.12,1.91,1.13,1.13,0,0,0,2.16,0,9.39,9.39,0,0,0,.12-1.91,1.21,1.21,0,0,0-1.2-1.2,1.22,1.22,0,0,0-1.2,1.2Z"/><path class="cls-2" d="M321.22,504.36a6.51,6.51,0,0,0,.14,1.08,1,1,0,0,0,2,0,6.51,6.51,0,0,0,.14-1.08,1.12,1.12,0,1,0-2.24,0Z"/><path class="cls-2" d="M324.16,508.81l0,.49a1.61,1.61,0,0,0,.52,1.18,1.26,1.26,0,0,0,1.73,0,1.61,1.61,0,0,0,.52-1.18l0-.49a1.4,1.4,0,0,0-.42-1,1.39,1.39,0,0,0-2,0,1.4,1.4,0,0,0-.42,1Z"/><path class="cls-2" d="M329.93,505.82l.15.36.08.19a.6.6,0,0,0,.2.22.72.72,0,0,0,.47.16.87.87,0,0,0,.39-.1.85.85,0,0,0,.36-.47l.15-.36a1,1,0,0,0,0-.49,1.1,1.1,0,0,0-.24-.42,1,1,0,0,0-.66-.27,1,1,0,0,0-.66.27,1.1,1.1,0,0,0-.24.42,1,1,0,0,0,0,.49Z"/><path class="cls-2" d="M388.42,475.66a7.59,7.59,0,0,0,.08,1.07,1,1,0,0,0,1.86,0,5.45,5.45,0,0,0,.08-1.07,1,1,0,1,0-2,0Z"/><path class="cls-2" d="M388.4,481.73a5.07,5.07,0,0,0,.14,1.45.93.93,0,0,0,1.78,0,5.42,5.42,0,0,0,.15-1.45,1,1,0,1,0-2.07,0Z"/><path class="cls-2" d="M393.21,487.18l0,.19,0,.26a.88.88,0,0,0,.1.35,1.17,1.17,0,0,0,.31.45,1.15,1.15,0,0,0,.8.34,1.33,1.33,0,0,0,1.06-.64,2.36,2.36,0,0,0,.22-.95,1.25,1.25,0,0,0-.38-.9,1.31,1.31,0,0,0-.9-.37,1.28,1.28,0,0,0-.9.37,1.24,1.24,0,0,0-.37.9Z"/><path class="cls-2" d="M394,492.55s0,.06,0,.09a1,1,0,0,0,.23.45,1.57,1.57,0,0,0,.38.34,1,1,0,0,0,1,0l.24-.19a.69.69,0,0,0,.14-.15.88.88,0,0,0,.22-.44.36.36,0,0,0,0-.1,1.13,1.13,0,0,0,0-.63,1.19,1.19,0,0,0-.3-.52,1.25,1.25,0,0,0-.84-.35,1.22,1.22,0,0,0-.84.35,1.29,1.29,0,0,0-.3.52,1.12,1.12,0,0,0,0,.63Z"/><path class="cls-2" d="M374.26,483.14c0,2.48,0,5,.05,7.45,0,1.21,0,2.42.1,3.64a12.88,12.88,0,0,0,.42,3.55c.1.28.58.34.65,0a14.54,14.54,0,0,0,0-3.55l-.24-3.64c-.18-2.48-.25-5-.28-7.45a.35.35,0,0,0-.7,0Z"/><path class="cls-2" d="M376.66,484.56c-.07,3.22-.64,6.6-.1,9.79a.36.36,0,0,0,.68,0c.54-3.19,0-6.57-.09-9.79a.25.25,0,0,0-.49,0Z"/><path class="cls-2" d="M304.44,509.41c0,.08,0,.16,0,.24a1.59,1.59,0,0,0,.08.53l.13.3a1.06,1.06,0,0,0,.33.37,1.23,1.23,0,0,0,.78.27,1.61,1.61,0,0,0,.65-.17,1,1,0,0,0,.36-.34.9.9,0,0,0,.23-.43,2.46,2.46,0,0,0,.09-.77,1.33,1.33,0,0,0-.39-.94,1.33,1.33,0,0,0-1.88,0,1.33,1.33,0,0,0-.39.94Z"/><path class="cls-2" d="M345.48,520.83a1.76,1.76,0,0,0,.77,2,1.25,1.25,0,0,0,.54.15,1.06,1.06,0,0,0,.64-.23,1.11,1.11,0,0,0,.39-1.13,3.68,3.68,0,0,0-.18-.49l.12.27a.88.88,0,0,1-.07-.23l0,.31a1,1,0,0,1,0-.24l0,.31a.57.57,0,0,1,0-.14,1.17,1.17,0,1,0-2.25-.62Z"/><path class="cls-2" d="M351.73,525.13a1.72,1.72,0,0,0-.25,1,1.69,1.69,0,0,0,.08.5,2.17,2.17,0,0,0,.41.68,1.25,1.25,0,0,0,.9.37,1.29,1.29,0,0,0,.77-.27,1.21,1.21,0,0,0,.45-.66,1.24,1.24,0,0,0-.12-1l-.06-.09.13.3a.5.5,0,0,1,0-.13l0,.35V526c0,.11,0,.23-.05.34a.93.93,0,0,1,0-.13l-.13.31a.41.41,0,0,1,.07-.11,1,1,0,0,0,.15-.49,1,1,0,0,0,0-.51,1.35,1.35,0,0,0-.6-.78,1.3,1.3,0,0,0-1-.13,1.45,1.45,0,0,0-.78.6Z"/><path class="cls-2" d="M416.46,509.8a2.23,2.23,0,0,0-.3,1.76,1.21,1.21,0,0,0,1.14.86l.31,0a1.23,1.23,0,0,0,.86-1.13v-.07c0,.11,0,.21-.05.32a4.61,4.61,0,0,0,.07-.5l0,.32a1.36,1.36,0,0,1,.1-.36l-.12.29a.94.94,0,0,1,.12-.22,1.24,1.24,0,0,0,.12-.94,1.18,1.18,0,0,0-.55-.72,1.25,1.25,0,0,0-1.67.43Z"/><path class="cls-2" d="M421.23,511.9l.25.33c.08.09.15.21.23.29a1.29,1.29,0,0,0,.3.22,1.48,1.48,0,0,0,.72.18,1.17,1.17,0,0,0,.69-.25.53.53,0,0,0,.21-.21.92.92,0,0,0,.21-.39,1.49,1.49,0,0,0,.08-.42,1.52,1.52,0,0,0-.22-.75l-.19-.34a1.33,1.33,0,0,0-.79-.6,1.35,1.35,0,0,0-1,.13,1.29,1.29,0,0,0-.6.79,1.26,1.26,0,0,0,.13,1Z"/><path class="cls-3" d="M266,410.2c20-.48,40.09-1,60.14-1.25s40-.23,60,0q16.91.18,33.79.54l-.66-.51Q423.58,423.48,428,438l.64-.84c-22.77,1.13-45.54,1.79-68.33,2.28s-45.58.64-68.37.53c-12.87-.07-25.74-.17-38.61-.46l.57,1,13.61-30.6c.35-.8-.78-1.5-1.19-.7q-4.45,8.67-8.89,17.34L253,435.22a15.74,15.74,0,0,0-1.65,4.09,12.37,12.37,0,0,0,.1,4.29c.53,3.17,1,6.3,1.27,9.52s.31,6.29.34,9.43c.07,6.46.08,12.92.12,19.37q.12,19.56.23,39.13c0,6.26,0,12.54.16,18.8.11,3.4.92,7.76,4.91,8.45a24,24,0,0,0,4.06.11h14.72l19.5,0,39,0q19.59,0,39.18.08t39,.14c3.22,0,6.44.06,9.66,0,2.05,0,4.08-.44,5.1-2.4,1.63-3.15.92-7.16.88-10.56,0-2.84.18-5.69.26-8.53q.13-4.8.24-9.6.2-9.73.2-19.46c0-3.19-.12-6.37-.13-9.56a.69.69,0,0,0-1.37,0c0,6.31-.13,12.63-.22,18.93s-.23,12.67-.42,19c-.09,2.93-.25,5.86-.29,8.79,0,1.66.13,3.32.13,5a11.64,11.64,0,0,1-.77,5.14c-1.08,2.14-4.2,1.57-6.18,1.57l-37.94.06q-19.05,0-38.11,0l-38.12,0-37.93,0c-3.15,0-6.32.11-9.47,0a4.17,4.17,0,0,1-3.91-3,18.13,18.13,0,0,1-.65-5.78q0-4.68,0-9.38c0-12.69-.15-25.38-.24-38.07l-.12-18.94c-.05-6.23,0-12.49-.41-18.71a82.22,82.22,0,0,0-1.14-8.86,11.92,11.92,0,0,1-.2-4.9,19.4,19.4,0,0,1,1.85-4.23q4.34-8.43,8.65-16.87l4.27-8.36-1.19-.7q-6.78,15.32-13.55,30.64a.66.66,0,0,0,.56,1c22.79.45,45.58.73,68.37.59s45.58-.5,68.36-1.37c12.86-.49,25.72-1,38.58-1.56a.67.67,0,0,0,.64-.84q-4.34-14.55-8.69-29.07a.72.72,0,0,0-.67-.51q-30.08-.69-60.15-.7t-60,.67c-11.27.25-22.53.57-33.78,1.06a.55.55,0,0,0,0,1.1Z"/><path class="cls-3" d="M430.32,489.34c.16-13.51,0-27-.35-40.55-.05-1.83-.14-3.67-.31-5.5a27.77,27.77,0,0,0-.86-5.44c-.19-.64-1.32-.56-1.23.17.19,1.6.52,3.17.69,4.77s.26,3.22.32,4.83c.13,3.34.11,6.69.14,10,0,6.75.14,13.51.25,20.26,0,3.81.19,7.62.32,11.43a.52.52,0,0,0,1,0Z"/><path class="cls-3" d="M300.77,421.94c22.11.44,44.21.16,66.31-.57q4.68-.15,9.37-.34l4.51-.18c.67,0,3.05-.34,3.13.77l.6-.6c-11.39.92-22.82,1.45-34.22,1.89s-22.61.66-33.92.77c-6.34.05-12.69,0-19,0l.61.81a2.52,2.52,0,0,1,1.52-1.63c.64-.27.18-1.37-.48-1.13a.83.83,0,0,0-.21,1.49,1.62,1.62,0,0,0,1.2.35c.75,0,1.5,0,2.25,0,2.88,0,5.76.05,8.63.07l17.62.15c5.81,0,11.62.14,17.43.08s11.6-.36,17.4-.73a165.46,165.46,0,0,1,19.79-.41c.79.05.79-1.2,0-1.24-10.92-.59-21.8.89-32.7,1.21s-21.64,0-32.45-.09l-9-.09-4.49-.05c-.8,0-1.61,0-2.41,0-.34,0-2.3-.27-2.44.11l-.43.43.13-.05-.33-1.19a3.7,3.7,0,0,0-2.27,2.42.64.64,0,0,0,.62.8c22.74.2,45.45-.59,68.16-1.62,6.34-.29,12.67-.73,19-1.08a.6.6,0,0,0,.59-.6c-.09-2-2.46-2.09-4-2l-8.67.34q-8.67.31-17.35.53c-11.63.3-23.26.45-34.89.51-6.54,0-13.08.15-19.62.17a.4.4,0,0,0,0,.79Z"/><path class="cls-3" d="M334.52,497.05a32.81,32.81,0,0,1-5.5.68l.51,1.23a2,2,0,0,0-.1-2.74c-.93-1-2.38-.75-3.56-.49a.77.77,0,0,0-.55.72l-.07,1.33.54-.72L318.63,499a.77.77,0,0,0-.53.92,59.5,59.5,0,0,1,.64,13.79l.77-.77c-1.66-.06-3.37,0-5-.18-.58-.06-1-.41-1.63-.5a3.19,3.19,0,0,0-1.85.3l1.18.67c0-4.87.05-9.73.07-14.6a.73.73,0,0,0-.92-.7c-2.44.37-4.36,2-6,3.71-1,1.05-2.05,2.12-3.07,3.18a5.16,5.16,0,0,0-1.73,2.69,8.67,8.67,0,0,0,.22,2.91c.15.84.46,2-.22,2.74s-2,.45-3,.41a4.35,4.35,0,0,0-2.87.62l1,.26a2.3,2.3,0,0,0-3-.95l1.09.63q.4-12.14.76-24.27a.73.73,0,0,0-.91-.69,20.66,20.66,0,0,1-.06-2.89l.12-3.47a.75.75,0,0,0-.55-.72,4.16,4.16,0,0,1-3.61-3.65.75.75,0,0,0-.74-.74,149,149,0,0,1-18.18-.08.73.73,0,0,0-.7.7c-.27,2.08-3.18,2.63-4.84,2.9a.68.68,0,0,0-.51.67c-.16,5.87-.32,11.75-.53,17.63-.1,2.94-.29,5.87-.32,8.81q0,2.16-.06,4.32c0,1.11.29,3.12-.58,4s-2.24.76-3.29.8c-1.65.06-3.3.12-5,.16a.72.72,0,0,0,0,1.43c1.55,0,3.09-.08,4.63-.11a10.17,10.17,0,0,0,3.43-.43c2.68-1,2.23-4,2.33-6.35.26-6.45.19-12.9.45-19.35.14-3.63.19-7.26.29-10.89l-.51.67c2.49-.4,5.49-1.37,5.87-4.24l-.7.71a149,149,0,0,0,18.18.15l-.74-.74a5.62,5.62,0,0,0,4.7,5.08c-.18-.24-.36-.48-.55-.71-.05,1.88-.23,3.83-.14,5.71,0,1,.7,2.44,1.95,2l-.9-.68q-.4,12.14-.78,24.27a.73.73,0,0,0,1.09.62.84.84,0,0,1,1.08.42.71.71,0,0,0,1,.26c1.65-1.19,4,.26,5.72-.95s1.14-3.29.87-5a3.22,3.22,0,0,1,.63-3c.93-1,1.94-2,2.9-3,1.75-1.81,3.6-3.77,6.22-4.15l-.93-.71c-.06,4.87-.14,9.73-.17,14.6a.79.79,0,0,0,1.17.67c.69-.3,1,0,1.63.28a5.49,5.49,0,0,0,1.9.16l4.18.14a.78.78,0,0,0,.76-.77,60.74,60.74,0,0,0-.72-14.19l-.53.92,7.16-1.93a.77.77,0,0,0,.55-.71c0-.45,0-.89.07-1.33l-.54.71a3.73,3.73,0,0,1,1.62-.16c.33.08,1,.53.63.94a.73.73,0,0,0,.51,1.23,25.54,25.54,0,0,0,5.84-.89.64.64,0,0,0-.34-1.23Z"/><path class="cls-3" d="M333.7,497.93a5.06,5.06,0,0,0,5,2.49L338,500a51,51,0,0,1,.43,13.18c-.1,1.11-.25,2.22-.43,3.32a10.61,10.61,0,0,0-.32,2.85c.13,1.37,1.4,2.75,2.86,2.17a.62.62,0,0,0,.44-.57c.13-2.18.26-4.35.41-6.53l-.74.56a23.5,23.5,0,0,0,8.11,0c.74-.13.42-1.23-.31-1.12a15.55,15.55,0,0,1-2.55.18c-.56,0-.71.07-.75-.5a7.59,7.59,0,0,1,.11-1.16l.42-4.83-1,.42a2.46,2.46,0,0,0,3.17,0c1.18-.91,1.34-2.5,1.38-3.89.1-4,.14-7.92.22-11.88l-.79.6,1.92.25a.62.62,0,0,0,.62-.62,2.39,2.39,0,0,0-1.42-2.1v1.07a8.94,8.94,0,0,1,5.94-1.31c-.17-.31-.35-.61-.52-.91-1.38,2.67,1.05,5.53,2.41,7.69a.6.6,0,0,0,1.1-.3,9.59,9.59,0,0,1,1.9-5.9l-.91.37q1.63.6,3.3,1.14a.72.72,0,0,0,.88-.5c.08-.39.16-.79.25-1.19l-.65.5a35.85,35.85,0,0,1,3.89.41c1,.21,1.19,1,1.36,1.87.24,1.32.34,2.89,1.85,3.34a.6.6,0,0,0,.74-.42,38.46,38.46,0,0,0-.51-17.53c-.16.28-.32.56-.47.84a48.75,48.75,0,0,1,8.54-.62l-.65-.64q.89,10,1,20a.64.64,0,0,0,.32.55c.95.43.81,1.58.65,2.45-.21,1.16-.62,2.27-.79,3.44a15.36,15.36,0,0,0-.08,3.95c.1,1,.14,2.41,1,3a1.71,1.71,0,0,0,2.25-.51c.73-1,.44-2.45.38-3.59l-.48-8.78-.5.66a16.08,16.08,0,0,1,5-.49.7.7,0,0,0,.7-.71c-.87-8.77-1.46-17.56-1.62-26.37l-.51.66a102.26,102.26,0,0,1,11.17-1.36l-.67-.51.24,1.31a.7.7,0,0,0,.67.51l6,.29c-.12-.47-.25-.93-.38-1.4-3,1.7-3.7,5.32-3.78,8.5a64.17,64.17,0,0,0,1.33,13.61c.18.93,1.62.54,1.43-.4a64.7,64.7,0,0,1-1.27-12.49c0-2.82.39-6.33,3-7.92a.76.76,0,0,0-.38-1.41l-6-.17.66.51-.23-1.31a.69.69,0,0,0-.67-.51,104.18,104.18,0,0,0-11.54,1.42.69.69,0,0,0-.51.67c.16,8.8.64,17.61,1.6,26.37l.71-.71a17.77,17.77,0,0,0-5.34.59.71.71,0,0,0-.51.66l.45,7.43a16.41,16.41,0,0,1,.15,3.7c-.08.38-.2.69-.6.5s-.32-.5-.38-.85a13.07,13.07,0,0,1-.22-1.87,14.42,14.42,0,0,1,.26-3.59c.19-.92.52-1.81.67-2.73.22-1.37.15-3-1.28-3.67l.31.55q-.14-10-1-20a.66.66,0,0,0-.64-.65,50.12,50.12,0,0,0-8.91.6.68.68,0,0,0-.47.84,32.67,32.67,0,0,1,.66,16.85l.74-.42c-.7-.26-.76-1.25-.86-1.87a6.46,6.46,0,0,0-.58-2.17,2.6,2.6,0,0,0-2-1.29c-1.31-.21-2.64-.32-4-.48a.66.66,0,0,0-.64.49c-.1.39-.22.78-.34,1.17l1-.43c-1.13-.49-2.27-.95-3.42-1.4a.81.81,0,0,0-.91.37,11.4,11.4,0,0,0-1.69,6.72l1.1-.3c-.63-1-1.3-2-1.87-3s-1.11-2.3-.52-3.44a.61.61,0,0,0-.52-.91,10,10,0,0,0-6.56,1.45.62.62,0,0,0,0,1.07,1.2,1.2,0,0,1,.8,1l.62-.62-1.75-.23a.62.62,0,0,0-.62.62c0,3-.06,5.92-.11,8.87a30.23,30.23,0,0,1-.13,4.26c-.16,1-1.25,2.89-2.47,1.85a.6.6,0,0,0-1,.41c-.09,1.11-.19,2.22-.29,3.33a11.81,11.81,0,0,0-.2,3.29,1.37,1.37,0,0,0,1.42,1,14.79,14.79,0,0,0,3.32-.21c-.1-.38-.21-.75-.31-1.12a21.66,21.66,0,0,1-7.49,0,.58.58,0,0,0-.73.56c-.15,2.18-.29,4.35-.45,6.53.15-.19.3-.38.44-.58-2.1.81-1-3.69-.86-4.53a53.08,53.08,0,0,0,.51-5.33,54.09,54.09,0,0,0-.62-10.86.64.64,0,0,0-.62-.47,3.79,3.79,0,0,1-3.81-1.87.67.67,0,0,0-1.15.67Z"/><path class="cls-3" d="M402.27,493.5a1.22,1.22,0,0,0-.66-.28.66.66,0,0,0-.6.32.08.08,0,0,0,.1.11,1.81,1.81,0,0,1,.49-.18.66.66,0,0,1,.59.12c.06.05.13,0,.08-.09Z"/><path class="cls-3" d="M401.35,493.84a.85.85,0,0,1,1.3.23,2.85,2.85,0,0,1,.12,2.17,6.73,6.73,0,0,0-.18,3.53.7.7,0,0,0,.84.47l1.27-.21a.7.7,0,0,0,.5-.65l0-1.11-.67.67a30.41,30.41,0,0,1,6.18.2l-.4-.31c.57,1.22-.33,2.73-.1,4.05a2.39,2.39,0,0,0,2,2.05,12.73,12.73,0,0,0,1.51.08c.78,0,.75.37,1.19.91.85,1,2.36.19,3.47.19a6.5,6.5,0,0,1,2.27.4c.48.17.95.47,1.48.29,1.18-.41,1-2.14,1-3.1.15-3.42.31-6.83.47-10.25l-.85.65a42.62,42.62,0,0,0,6.08.51.71.71,0,0,0,0-1.42,29,29,0,0,1-5.73-.38.68.68,0,0,0-.85.64c-.15,3.53-.32,7.06-.49,10.59,0,.24.09,1.1-.08,1.27.09.18,0,.18-.24,0l-.44-.18a8,8,0,0,0-2.21-.45,7.55,7.55,0,0,0-2,.12,5.43,5.43,0,0,0-.58.13c-.18.15-.28.12-.32-.1s-.25-.49-.44-.68c-.8-.81-1.9-.54-2.91-.64-1.7-.16-.91-2.26-.8-3.35a3.41,3.41,0,0,0-.21-1.76c-.33-.72-1-.64-1.71-.72a32.11,32.11,0,0,0-5.37-.07.69.69,0,0,0-.67.67c0,.37,0,.74,0,1.11l.49-.65-1.27.2.83.48c-.61-2,1.05-4,0-5.91a2.2,2.2,0,0,0-3.45-.59c-.57.63.36,1.57.93.93Z"/><path class="cls-4" d="M373.26,313.42s9.46-19.12,15.4-35S407,239.66,407,239.66l4.65-10.53,1.73.54s-1.25-13.54-1.07-16.53a11.66,11.66,0,0,1,3.78-7.76c2.15-2,9.52-7.86,14.93-14.15s12.41-14,12.41-14l-3-1.33L448.05,165l1.88-4.74-.72-1.37s2.43-6.48,12.43-20.09,17.6-26.83,20.6-33.32,4.42-10.41,5.16-14.56,4.74-12,7.63-18.17,10.71-19.48,10.71-19.48S513.34,40,514.85,34s6.69-12.75,9.49-16.82,8.78-11.52,8.78-11.52L536.24,0l50.65,47.2s-1.84,7-4.08,10.53-10.16,11.08-10.93,12.93-5.25,9.4-7.12,14.72-9.39,22.56-12.41,27.9-9.88,14.41-14.37,20.8-13.5,17.46-14.93,21.39-7.82,13.92-9.93,18.21-6.86,9.07-9.68,12-4,4.09-4.84,6.29-1.44,3.35-1.44,3.35-6-3.23-8.83-5.83a43.86,43.86,0,0,0-5-4l-1.13,1.17-6.29,9.06L474,197.53l-3.92-.85s-1.19,4.39-2.05,8.31-5.61,8.13-7,9.42,1.26,6.3,1.26,6.3a8.35,8.35,0,0,1-.24,6.78,14.39,14.39,0,0,1-6.1,6.08,8.15,8.15,0,0,1-3.2,1.09,3.82,3.82,0,0,1-2.47,3.6,42.44,42.44,0,0,1-6.87,1.84l-.77,1.85s9.52,6.05,10.2,5.69,5.58,3.47,5.58,3.47S447.24,276.92,444,286.17s-14.62,33.68-14.62,33.68l-6.06,15.62s-19.78-8-23.83-9.61S373.26,313.42,373.26,313.42Z"/><path class="cls-5" d="M412.32,218.41c-.23-4.87.78-9.81,3.76-13S426,197.05,428.34,194s8.82-10,8.82-10l6.26-6.81s12.78,8,18.35,12.15a72.49,72.49,0,0,1,8.74,7.58s-1.08,2.17-3.4,8.21-3,6.27-4.41,8.13-2.7,2.19-1.35,5.85,2.51,6-1.67,10.63-5.06,3.94-6,4.52-2.12,1.52-2.12,1.52-.69,2.55-2.78,3.25-7.11,1.86-7.11,1.86,1.07,1.15-2,1.85-7.89,0-7.89,0l2.09,3.48s5.73-.9,7.28,2.34,5.49,7.88,2,9-3-.23-6.5-.93a42.27,42.27,0,0,1-10-3.25c-2.78-1.39-9.21-8.5-10.76-9.7s-2-3.3-2.47-10.73S412.32,218.41,412.32,218.41Z"/><path class="cls-3" d="M429,219.79a2.75,2.75,0,0,1-2.49-1.13c-.28-.34-.53-.83-1-.88s-.49.38-.78.47c-.94.28-1-2.36-.91-2.73.13-.58-.77-.84-.9-.24a4,4,0,0,0,.38,2.92c.33.58,1,1.34,1.74,1.08a2.92,2.92,0,0,0,.37-.24c.14-.08.13-.17.11-.22a1.07,1.07,0,0,0,.13.15,6.9,6.9,0,0,0,1,1.14,2.34,2.34,0,0,0,2.58.33A.35.35,0,0,0,429,219.79Z"/><path class="cls-3" d="M586,46.92a41.51,41.51,0,0,1-7.64,15.48c-1.81,2.23-3.88,4.23-5.74,6.42a34.59,34.59,0,0,0-4.61,7c-2.59,5.15-4.61,10.6-6.92,15.88-2.39,5.46-4.9,10.87-7.62,16.18a187.75,187.75,0,0,1-19,29.94,165.35,165.35,0,0,0-10.63,14.5c-2.92,4.72-5.29,9.75-7.93,14.63a66.5,66.5,0,0,1-10.62,14.78c-3.48,3.6-7.16,7.25-8.95,12-2.13-2.76-4.95-4.87-7.65-7.05-3.29-2.66-6.5-5.47-9.94-7.92-1.7-1.21-3.57-2.15-5.31-3.3s-3.56-2.46-5.37-3.64a95.91,95.91,0,0,1-9.21-6.72,39.78,39.78,0,0,0-9-6c9.86-19.67,25.64-35.87,34.21-56.24,2.38-5.65,4.05-11.56,6-17.35a96.43,96.43,0,0,1,7.35-16.4c5.59-10,12.33-19.29,16.62-29.93,2.57-6.39,4.54-12.89,8.29-18.74C526,14.8,530.62,10,534.94,4.93c.69-.82-.42-2-1.19-1.2A111.7,111.7,0,0,0,522.53,17a66.36,66.36,0,0,0-8,15.86,111.8,111.8,0,0,1-7.32,16.3c-2.81,5-5.92,9.85-8.87,14.78a111.7,111.7,0,0,0-7.9,15.39c-2.36,5.86-4,12-6.13,17.91-3.78,10.68-9.73,20.29-16.07,29.62-7,10.32-14.42,20.38-19.62,31.78a.76.76,0,0,0-.26,1.48l.57.24c.46.79-1.53,3.45-1.78,3.83l-2.57,3.88c-1.71,2.59-3.44,5.16-5.17,7.74a.78.78,0,0,0,.46,1.13c.72.21,1.42.47,2.12.73-4.28,3.08-7.37,7.39-10.75,11.39-4.1,4.85-8.9,9.05-13.54,13.36a28.84,28.84,0,0,0-5.34,5.75c-1.5,2.43-1.57,5.07-1.32,7.84q.56,6.27,1.15,12.52l-.3-.21a.69.69,0,0,0-.95.25c-3.62,7.4-6.95,15-10.42,22.42l-10.39,22.42-10.29,22.18-5.16,11.09c-.76,1.62-1.62,3.23-2.26,4.89a2.67,2.67,0,0,0,.7,3.27,20.56,20.56,0,0,0,4.49,2.2c1.88.85,3.76,1.7,5.65,2.53q5.42,2.4,10.88,4.71c7.19,3,14.38,6.09,21.67,8.88,1.76.68,3.53,1.36,5.3,2,1.23.45,2.6.73,3.34-.62a34.48,34.48,0,0,0,1.65-4.64c.74-2,1.54-3.92,2.36-5.86,3.07-7.33,6.3-14.59,9.48-21.88L449,277c3.68-8.41,7.12-16.91,11-25.25a.91.91,0,0,0-.32-1.21,162.66,162.66,0,0,0-16.4-8.82,2.75,2.75,0,0,0,.84-1.25l0-.14c3.51.68,7-1.52,8.92-4.69h.27c1.81-.26,3.47-1.63,4.82-2.79a19.22,19.22,0,0,0,4.08-4.94,8.68,8.68,0,0,0,1.48-5.62c-.32-2.23-1.62-4.22-1.54-6.52a.78.78,0,0,0-.56-.74h-.15a24.94,24.94,0,0,0,2.12-2,22.69,22.69,0,0,0,3.9-5.65c1-2.08,1.48-4.34,2.35-6.47.48-1.2,1.62-2.36,1.69-3.55a5.61,5.61,0,0,1,1.9,1.41.7.7,0,0,0,1.09-.14q2.52-3.51,5-7.06,1.27-1.83,2.56-3.65c.26-.37.79-1.48,1.22-1.64.61-.23,1.52.78,1.92,1.12,3.58,3,6.68,6.63,10.94,8.72h.06a1,1,0,0,0,1.51-.42c1.69-4.93,5.48-8.6,9-12.23a61.76,61.76,0,0,0,9.59-12.58c2.77-4.81,5.11-9.85,7.85-14.67a124,124,0,0,1,10.38-14.86c3.61-4.62,7.16-9.28,10.37-14.19s6.12-10,8.82-15.22,5.32-10.68,7.71-16.14,4.32-10.83,6.64-16.18a39.31,39.31,0,0,1,4.63-8.31c2-2.69,4.55-5,6.7-7.56a38.52,38.52,0,0,0,8.09-16.41A.75.75,0,0,0,586,46.92ZM458,251.66c-2.93,7-6.18,14-9.24,20.94l-9.33,21.33q-4.65,10.62-9.3,21.26c-1.41,3.24-2.82,6.47-4.09,9.77-.63,1.64-1.24,3.3-1.82,5-.27.8-.53,1.6-.79,2.4-.09.25-.25,1.2-.5,1.35s-1-.14-1.36-.27q-21.39-8-42.23-17.33a35.67,35.67,0,0,1-4.7-2.15c-.35-.22-.77-.35-.91-.82s.31-1.28.52-1.75c.44-1,.89-1.93,1.33-2.9l4.89-10.63,9.69-21q5.46-11.82,10.93-23.65c3.57-7.73,7.29-15.42,10.72-23.23l.51.33c.16,1.81.33,3.62.5,5.43.14,1.57.28,3.15.43,4.73a10.85,10.85,0,0,0,.87,3.9c1.22,2.37,4,4,6,5.6a80.44,80.44,0,0,0,7.54,5.3,11.24,11.24,0,0,0,7.64,1.88,6.9,6.9,0,0,1,3.88,1.38,4.57,4.57,0,0,0,2.85.8,2.69,2.69,0,0,0,1.49-.72,1.84,1.84,0,0,0,.74-.77,5,5,0,0,0,.05-4.61.56.56,0,0,0-.21-.22,10.67,10.67,0,0,0-2.95-4.36c-2-1.72-4.36-2.21-6.64-3.32a6.44,6.44,0,0,1-1.83-1.31l.06,0a9.67,9.67,0,0,0,6.57-.42c.53-.2,1.22-.44,1.91-.74C447,245.58,452.52,248.57,458,251.66Zm-41.26-6.88-.31-.33c.11-.14.24-.27.36-.4A4.56,4.56,0,0,0,416.77,244.78Zm17.79,10.41a2.12,2.12,0,0,1,1.77-1.16c1.87,0,3,1.58,4.13,2.93-.34-.19-.65-.4-.9-.55a7.3,7.3,0,0,0-3-1.2A12.84,12.84,0,0,0,434.56,255.19Zm-7.93-15.91a2.54,2.54,0,0,0,.29-1h0c.24.42.49.82.76,1.22-.38,0-.75,0-1.11,0A1.08,1.08,0,0,0,426.63,239.28Zm33.94-22.86a8.93,8.93,0,0,0,.24,1.55,3.37,3.37,0,0,0-1.87-.84l-.22-.12.42-.29A3.43,3.43,0,0,1,460.57,216.42Zm-4.53,3a4.5,4.5,0,0,0-.3-.42l.27-.14A2.63,2.63,0,0,0,456,219.38Zm12.89-20.54a10.8,10.8,0,0,0-.53,1.08c-.39.92-.69,1.87-1,2.83A25.49,25.49,0,0,1,465,208.5a21.6,21.6,0,0,1-4.71,5.46c-.61.51-1.24,1-1.87,1.45a5.2,5.2,0,0,0-1.5,1.08c-.75.57-1.84,1.42-2.74,1.38a4.64,4.64,0,0,0-.69-.21.73.73,0,0,0-.56,1.33,2.64,2.64,0,0,0,1,.34,2.38,2.38,0,0,1,.69.48,7.15,7.15,0,0,1-4.36.57.76.76,0,0,0-.4,1.46,6.76,6.76,0,0,0,4.61.06c.79-.27,1.59-1.05,2.33-.36.41,1,.86,2,1.25,3a.71.71,0,0,0,1.36-.38,10.1,10.1,0,0,0-1.38-3.56l-.2-.5c-.26-.7-.45-1.39.45-1.56a1,1,0,0,1,.34,0,8.31,8.31,0,0,1,1.53,1.1.76.76,0,0,0,1.16-.17c.16.52.34,1,.5,1.57.69,2.37,0,4.28-1.21,6.32a18.22,18.22,0,0,1-3.63,4.25,14.2,14.2,0,0,1-2.53,1.81,5.1,5.1,0,0,1-.69.31c-.18-.61-1.05-1-1.36-.23,0,.11-.12.23-.17.34a3.77,3.77,0,0,1-1.3-.65c-5.94-4.29-10.31-10.67-17.67-12.74a.52.52,0,0,0-.28,1c4.17,1.33,7.47,4.23,10.58,7.21,1.58,1.51,3.11,3.07,4.78,4.49a12.05,12.05,0,0,0,3.05,2.13,7.66,7.66,0,0,1-5.47,3.56,5.31,5.31,0,0,1-2.73-.53,14.69,14.69,0,0,0-1.54-1,27.08,27.08,0,0,1-3.11-3.14l-7.16-7.9c-.78-.86-3.84-4.7-5-2.07a.8.8,0,0,0,.28,1.07c6.33,3.07,9.09,10.27,14.95,14,.46.28.88.57.55,1.06a1.84,1.84,0,0,1-.71.48,1,1,0,0,0-.93.42,17.63,17.63,0,0,1-3.12,1.2,6.4,6.4,0,0,1-6.39-1.55,23.53,23.53,0,0,1-3.56-5.15c-.5-.87-1-1.75-1.45-2.63a33.27,33.27,0,0,0-3.1-6.62c-1.15-2.61-2.69-5.24-5.56-5.23a.77.77,0,0,0-.39,1.43,13.67,13.67,0,0,1,4.73,4.89q1.14,2.63,2.43,5.17c.15.39.3.77.44,1.15a10.17,10.17,0,0,1,.91,3.36c0,1.1-1.14,1.93-.81,3a1.64,1.64,0,0,0,1.64,1,3.64,3.64,0,0,1,1.6.19,4.49,4.49,0,0,1,1.56,1.41,20.64,20.64,0,0,0,2.18,2.74,9.57,9.57,0,0,0,2.72,1.65c2.16.92,4.42,1.47,6.11,3.22a8.61,8.61,0,0,1,1.87,2.95c.34.91.84,2.5.2,3.41a5,5,0,0,1-.88-.9,11.84,11.84,0,0,0-2.86-2.79,4.43,4.43,0,0,0-3.22-.52,3.05,3.05,0,0,0-1.18.59c-.46.37-.58.9-1,1.3a2,2,0,0,1-2,.24l-.55-.19-.22-.08-.56-.25-.46-.23-.67-.35a62.45,62.45,0,0,1-6.55-4.52c-1.19-.89-2.37-1.81-3.53-2.74l-.6-.48a3.23,3.23,0,0,1,0-3c.15-.4-.35-.7-.68-.52a5.41,5.41,0,0,0-1.51,1.21,9.29,9.29,0,0,1-.86-3.79l-.45-4.73q-.84-8.8-1.68-17.61c-.26-2.76-.7-5.62.71-8.17a23.38,23.38,0,0,1,4.87-5.45c4.65-4.31,9.65-8.39,13.82-13.17,3.67-4.21,6.8-8.9,11.09-12.53,0,0,0,0,0,0,6.43,2.59,12.19,6.63,17.53,11q2.35,2,4.63,4c.74.64,1.46,1.29,2.19,1.95.56.5,2.18,1.49,2,2.37C469.66,198,469.14,198.45,468.93,198.84Zm12.87-13.4c-1,1.16-1.76,2.56-2.62,3.81q-2.74,4-5.45,7.93a6.74,6.74,0,0,0-2.88-1.46h-.06c-1.57-1.69-3.48-3.17-5.22-4.7a104.56,104.56,0,0,0-11.13-8.76,54,54,0,0,0-13.17-6.48q3.28-5,6.6-10c.91-1.37,2.48-3,2.64-4.71,5.57,2.86,9.81,7.73,15.14,11,3.49,2.15,6.73,4.65,10.27,6.7a55.7,55.7,0,0,1,7.66,5.75A2.12,2.12,0,0,0,481.8,185.44Z"/><path class="cls-6" d="M308.62,396.3s3.07-16.36,6.65-32.2,13.28-36.79,17.88-51.1,12.27-36.29,12.27-36.29a2.49,2.49,0,0,1,2.51.07c1.11.84,25.89,16.43,25.89,16.43s6.41-3.62,8.64-6.68,5.29-5.85,7-8.64,4.73-5.29,10.3-4.73,9.19,3.9,14.48,4.18,12.25.28,16.15,1.39a57.32,57.32,0,0,1,8.35,3.34s5.57-1.95,13.65-8.07,12.8-7,15.87-10.31,3.62-5,7.52-6.68,6.68-2.78,6.68-2.78l-.56-5s-.83-7,7-10.58,27.29-11.41,34.25-13.64,24.23-7.52,28.68-10.58,16.71-15.87,22.83-22.84,5.29-10,16.15-17.54,19.5-9.74,19.5-9.74l14.47.55s15.32,49.85,15.6,48.45-8.08,12.53-8.91,13.09-3.07,3.06-5.85,5.29-4.18,3.34-6.68,2.23a20.2,20.2,0,0,1-4.46-2.79s-2.78,0-6.12,3.62-4.74,9.75-7,11.42-7,2.79-10,3.9-3.34,0-5.57,2.78-9.47,6.13-15.31,8.64a70.76,70.76,0,0,1-13.92,4.45c-3.9.84-5.3-.28-6.13,2.78s-.28,4.46-1.67,3.9a19.73,19.73,0,0,0-3.9-.83s-1.95,4.73-3.62,10-1.11,7.24-4.18,8.63a50.5,50.5,0,0,1-5.84,2.23s-3.07,2.51-9.47,2.51-9.75-3.07-11.7-1.39a15.49,15.49,0,0,0-2.5,2.5,101.76,101.76,0,0,1-9.19,6.41c-5,3.06-12,5.29-18.66,11.41s-11.13,10-14.75,11.7a8.65,8.65,0,0,1-7,0,11.5,11.5,0,0,1-7.24,3.89c-5,.84-13.92-1.11-17.82-1.67s-18.65-4.73-18.65-4.73a42.47,42.47,0,0,0-11.7,3.9,37.72,37.72,0,0,0-7.79,5.57L392.48,340a5.82,5.82,0,0,1,2.78,5.29c0,3.9.28,4.73-1.67,6.4a8.32,8.32,0,0,1-3.62,1.95s-8.35,35.92-10.3,46.78A107.94,107.94,0,0,1,373.55,421s-19.5-9.47-27.85-12.81-37.87-10.31-37.87-10.31Z"/><polygon class="cls-2" points="353.02 404.88 359.54 389.12 371.5 394.01 366.61 409.76 353.02 404.88"/><path class="cls-2" d="M373.56,293.45s6.52-3.91,8.9-6.92a163.91,163.91,0,0,1,11-12.36c1.76-1.52,6.31-1.77,10.6,0s8.83,3.53,12.62,3.28,17.16,2.27,23.72,5.3S454,291.08,457,295.62s7.31,8.83,6.81,16.91-1.38,9.74-1.38,9.74-3.92,4.39-7.71,5.4-11.86,2-18.17.25-20.19-4.79-20.19-4.79l-2.32.25s-12.31,4.54-19.63,8.08-6.06,4.79-10.85,5.3-8.08-1.27-8.59-4-1.76-5.55,6.06-11.61,20.28-11.87,20.28-11.87l-12.71-7.82-15.05-8"/><path class="cls-2" d="M392.68,341.49s2.69.14,2.58,3.79.43,5.17-1.67,6.4-2.53.89-2.53.89Z"/><path class="cls-3" d="M351.57,385.63c-.26-.85-1.54-1.26-2.23-1.63-1.15-.64-2.32-1.25-3.49-1.85-2.42-1.24-4.9-2.35-7.39-3.43-.39-.17-1-.16-1.2.31-1.09,2.55-2.14,5.1-3.18,7.66-.56,1.36-1.12,2.72-1.67,4.09a16.59,16.59,0,0,0-1.44,3.7c-.1.77.37,1.18,1,1.51,1.17.63,2.41,1.14,3.63,1.66a46.26,46.26,0,0,0,8,2.71.74.74,0,0,0,.52-.07.49.49,0,0,0,.7-.23l3.78-7.64c.63-1.27,1.26-2.54,1.88-3.82C350.87,387.82,351.85,386.55,351.57,385.63Zm-2.32,2.24-.69,1.45L347,392.7,344,399l0,0c-2-.74-3.93-1.41-5.87-2.19-1-.4-2-.83-3-1.29a15.26,15.26,0,0,1-2.26-1,10.56,10.56,0,0,1,.56-1.25l.79-1.92c.53-1.28,1-2.57,1.56-3.85.91-2.26,1.82-4.53,2.71-6.8,2,.82,3.92,1.7,5.85,2.61,1,.49,2.09,1,3.12,1.52.61.31,2.51,1,2.55,1.52C350,386.63,349.41,387.53,349.25,387.87Z"/><path class="cls-3" d="M375.62,391.76a14.67,14.67,0,0,0-3.75,1.26,2.31,2.31,0,0,0-.58-.46A50.31,50.31,0,0,0,365,389.9l-3.17-1.32-.24-.11c-.72-2.23-1.41-4.46-2.08-6.71a.7.7,0,0,0-1.35.38q.78,2.78,1.61,5.55a2.29,2.29,0,0,0-.85-.09,1.54,1.54,0,0,0-1.24,1.06c-.48,1-.83,2.15-1.25,3.22l-2.7,6.95c-.2.52-.41,1-.61,1.55l-1.26.47c-1,.34-.57,1.86.43,1.54l.07,0a3.23,3.23,0,0,0-.17,2.1,2.6,2.6,0,0,0,1.74,1.47c1.21.47,2.44.9,3.65,1.34,2.68,1,5.38,1.88,8.07,2.83.6.21.92-.44.72-.9l0,0c.11-.46.26-.91.41-1.35a7.28,7.28,0,0,0,.64,1,.51.51,0,0,0,.85-.36,9.61,9.61,0,0,0-.73-2.6c1.26-2.88,2.95-5.6,4.05-8.56a13.16,13.16,0,0,0,.71-2.23,15.58,15.58,0,0,0,4-2.06C377,392.49,376.25,391.66,375.62,391.76Zm-12.77-.94,3.17,1.32,3.17,1.32.87.37-.37.16q-2.74,1.13-5.52,2.2l-.3-.85q-.8-2.37-1.57-4.76Zm-6.15,5.11c.42-1.12.85-2.24,1.28-3.36.24-.61.79-3,1.46-3.18a2.16,2.16,0,0,1,1,.35q1,3.15,2,6.28c.08.25.17.5.26.76-2.45,1-4.91,1.89-7.38,2.8Zm8.13,12.45-5.58-2.25c-1.13-.45-2.26-.88-3.39-1.31a7,7,0,0,1-1.45-.56c-.87-.67-.39-1.34-.11-2.09.06-.17.13-.33.19-.49,3-1,5.9-2,8.81-3.07.5,1.42,1,2.84,1.55,4.24.31.82.6,1.73.93,2.63A18.21,18.21,0,0,0,364.83,408.38Zm1.88-4.93-.52-1.5c-.45-1.3-.91-2.6-1.37-3.9,1.82-.7,3.64-1.43,5.44-2.17-.11.32-.23.64-.35.95C369.05,399.11,367.8,401.25,366.71,403.45Z"/><path class="cls-3" d="M388.53,328.61a11.11,11.11,0,0,0-.91-1.66,13.85,13.85,0,0,0-2.38-2.83,1.9,1.9,0,0,0-.3-.56,1.77,1.77,0,0,0-1.27-.72c-.15-.1-.29-.22-.45-.32-.4-.27-.74.13-.68.5a8,8,0,0,0-2,1.23c-2.7,2.15-5.5,6.66-2.12,9.6,2.91,2.54,7.66.62,9.86-2a2.91,2.91,0,0,0,.29-3.21Zm-1.72-.85a3.08,3.08,0,0,1-1.23-1.69A12.1,12.1,0,0,1,386.81,327.76Zm0,3.71c-2,1.67-6.79,3.6-8.08.06a4.68,4.68,0,0,1,1.08-4.42,11.11,11.11,0,0,1,1.51-1.48c.28-.24.56-.46.85-.67.56-.4.56-.49,1.27-.25s.6.4.71,1.09a4.29,4.29,0,0,0,.16.71,4.21,4.21,0,0,0,.71,1.36,4.58,4.58,0,0,0,2.5,1.65A2.07,2.07,0,0,1,386.77,331.47Z"/><path class="cls-3" d="M398.22,314.65a.64.64,0,0,0,0,1.27c1.85,0,3,1.67,3.77,3.15.47.85,1.21,2.31.21,3.1-1.24,1-1.36-.82-1.61-1.58a7.41,7.41,0,0,0-5.74-4.92.68.68,0,0,0-.82.82,10.07,10.07,0,0,0,2,3.6c.83,1.09,2.36,2.61,2.4,4.08,0,.73-.23.64-.77.22a3.74,3.74,0,0,1-.72-.86,19.19,19.19,0,0,1-1.14-2,10,10,0,0,0-2.34-3.3c-.36-.3-.87.19-.52.52,1.52,1.39,1.83,3.41,2.81,5.13.56,1,2.27,3.16,3.52,2s0-3.42-.65-4.47a43,43,0,0,1-2.82-4.08,6.48,6.48,0,0,1,3.81,4.55c.47,1.66,2,2.52,3.47,1.27,1.68-1.43.64-3.7-.29-5.24S400.3,314.38,398.22,314.65Z"/><path class="cls-3" d="M614.17,230.79c-.8,1.41-2.86,1.33-4.24,1.72a6.6,6.6,0,0,0-3.8,2.92c-2,2.92-3.18,6.34-5.3,9.18a9.23,9.23,0,0,1-4,3.24c-2,.78-4.3.8-6.37,1.52-4,1.39-7,4.47-10.51,6.77C572.64,261,564,263,555.76,265.41c-1.8.54-4,.91-5.62,1.93-1.35.86-1.36,2.26-1.29,3.7,0,.72.14,1.47-.7.87a15.14,15.14,0,0,0-1.57-1.31,2.54,2.54,0,0,0-3.5,1.16,26.71,26.71,0,0,0-2.49,6.95c-.62,2.47-.65,5.16-1.44,7.57s-3,3.59-5.4,4.52c5.36-6.28.11-16.38-5.55-20.91-1.45-1.16-3.37-2.76-5.28-1.62s-2.53,4.08-3.22,6.06l-3.09,8.84a15.73,15.73,0,0,1-2.36,5.1l.81-10.56a100.62,100.62,0,0,0,.58-11.77c-.26-6.07-2.53-12.93-8.43-15.72-2.43-1.16-5.93-1.53-7.8.82-1.48,1.85-1.32,4.85.92,6,1.3.67,2.69.92,3.92,1.79a11.81,11.81,0,0,1,3.33,3.77,16.22,16.22,0,0,1,1.65,10.47,30.43,30.43,0,0,1-1.6,6.08c-.22.6-.43,1.19-.61,1.78a43.1,43.1,0,0,0-3.48-6.88,78.86,78.86,0,0,0-6.17-8.46,87,87,0,0,0-6.57-7.51,15.43,15.43,0,0,0-7.24-4.4c-.31-.07-.62-.11-.93-.15a54.63,54.63,0,0,1-.25-6,8.75,8.75,0,0,1,3.15-5.55c3.63-3.24,8.72-4.89,13.13-6.73q15.93-6.67,32.29-12.19c5.11-1.74,10.42-3.1,15.39-5.22,4.56-1.94,8.64-5.13,12.39-8.33,7.36-6.27,13.53-13.75,19.81-21.07,3.46-4,7-8.05,10.78-11.79a35.85,35.85,0,0,1,6.64-5.39,78.64,78.64,0,0,1,7.9-3.95c1.21-.55.15-2.29-1-1.77-4.83,2.08-9.45,4.32-13.31,8-3.52,3.33-6.79,6.9-10,10.54-6.42,7.37-12.51,15.07-19.72,21.7a60.07,60.07,0,0,1-12.43,9.33,47.31,47.31,0,0,1-7.56,2.89c-2.74.88-5.48,1.77-8.21,2.7-11.07,3.74-22,7.93-32.73,12.49-4.93,2.09-10.55,3.94-14.6,7.59a10.37,10.37,0,0,0-3.34,5.39c-.54,2.47.17,4.9.3,7.36a11.14,11.14,0,0,0-5.64,2c-2.56,1.7-4.6,4-6.86,6.08a70.22,70.22,0,0,1-8.57,6.5c-6.9,4.55-14.23,8.41-21.24,12.8a48.47,48.47,0,0,0-6.7-2.27,90.73,90.73,0,0,0-13.63-1.93,41.35,41.35,0,0,1-7.5-1.33c-2.21-.64-4.3-1.61-6.44-2.41-4-1.49-8.23-2-12.05.26-4.13,2.49-6.41,6.83-9.26,10.54a31,31,0,0,1-5.13,5.05,26.75,26.75,0,0,0-3.81,3.55c-5.56-3.22-11.08-6.52-16.5-10-4-2.57-7.92-5.33-12-7.84a.87.87,0,0,0-1.27.51c-1,4.21-2.48,8.35-3.77,12.48s-2.52,8-3.81,11.92q-4,12.15-8.21,24.2c-5.46,15.62-11.7,31-16.39,46.87A151,151,0,0,0,307,397a.77.77,0,0,0,.79.89.6.6,0,0,0,.47.52c4.34,1.06,8.74,1.85,13.09,2.93s8.62,2.39,12.87,3.78a211.32,211.32,0,0,1,25,9.93c4.68,2.22,9.3,4.56,13.93,6.9a1.06,1.06,0,0,0,1.53-.63c5.81-22.4,11.29-44.9,16.19-67.53,2.27.15,4.25-2.84,4.76-4.71a9.32,9.32,0,0,0,.05-4.3,12.05,12.05,0,0,0-.71-2.28c-.34-.8-1.1-1.81-.89-2.71a.75.75,0,0,0-.11-.62c.41-2,.83-4,1.24-6a.86.86,0,0,0,0-.32c3.09-1.76,6.21-3.5,9.39-5.09a89.55,89.55,0,0,1,10-4.2c4.59,1.08,9.16,2.3,13.74,3.41,4.42,1.07,8.84,2.3,13.34,3a26.75,26.75,0,0,0,11.71-.36,16.62,16.62,0,0,0,5.63-3c4.56,2.11,8.36-1.65,11.49-4.49a129.39,129.39,0,0,1,24.66-17.57q3.27-1.8,6.65-3.4c1.95-.93,4.44-1.61,6-3.21.8-.84,1.18-2,2.36-2.39a6.72,6.72,0,0,1,3.09,0,51.66,51.66,0,0,0,6.53,1A19.9,19.9,0,0,0,531.27,293c2.71-1,5.67-1.54,7.81-3.52a8.22,8.22,0,0,0,2.3-5,51.36,51.36,0,0,1,1.62-7.15c.34-1.1.73-2.19,1.16-3.25.37-.91.78-2.33,1.89-1.49s1.86,1.84,3.23,1.38,1.44-2,1.36-3.24c-.06-1-.08-1.68,1-2.14a28.1,28.1,0,0,1,3.11-1c8.29-2.5,16.93-4.34,24.49-8.71,3.74-2.17,6.85-5.43,10.8-7.21,2.06-.94,4.31-1,6.46-1.64a10.47,10.47,0,0,0,4.56-2.65c2.79-2.77,4.11-6.6,6.09-9.91a7.48,7.48,0,0,1,2.21-2.68,8.68,8.68,0,0,1,2.56-.8c1.65-.39,3.11-.9,3.78-2.58C616,230.55,614.62,230,614.17,230.79ZM509.32,290.92c0-.6-.09-1.21-.16-1.81A4.09,4.09,0,0,1,509.32,290.92ZM394.13,346.86a6.15,6.15,0,0,1-1.23,3.55,5,5,0,0,1-1.65,1.28c.65-3,1.3-6.06,1.93-9.1A10.22,10.22,0,0,1,394.13,346.86Zm-16.42,54.66c-1.52,6-3.14,12-4.77,18-7.77-4-15.59-7.92-23.71-11.18a201.35,201.35,0,0,0-26-8.28,114,114,0,0,0-14.39-3,.53.53,0,0,0,0-.12c1.81-16.17,7-31.63,12.53-46.85,5.68-15.71,11.3-31.41,16.43-47.3q2.18-6.7,4.25-13.42c1.32-4.25,2.48-8.58,3.91-12.8,6.44,4.71,13.39,8.87,20.17,13.06,2.49,1.54,5,3,7.53,4.53a.93.93,0,0,0,.26.15q7,4.13,14.18,8c3.8,2,7.62,4,11.53,5.8l-.7.33a119,119,0,0,0-11.71,6.46,48.54,48.54,0,0,0-10,7.88c-2.4,2.68-4.1,6.23-3.2,9.89.83,3.42,3.92,5.35,7.29,5.57,4.08.27,7.76-2,11.15-3.94L393,334Q386.17,368,377.71,401.52Zm17-102.12a4,4,0,0,0,3.67-2.17,2.29,2.29,0,0,0,3,.29c1.34-.95,1.16-2.83,1.32-4.26a12.49,12.49,0,0,1,.92-3.45,30.26,30.26,0,0,0-.06,6.24,18.64,18.64,0,0,0,1,4.48c.42,1.11,1.19,2.2,1.69,3.32a5.23,5.23,0,0,0-4.72-.05.74.74,0,0,0-.26,1,3.35,3.35,0,0,0,.85.83c.46.31.91.29.5.64-.24.19-.85.18-1.15.28a3.07,3.07,0,0,0-.67.36c-2.54-1.42-5.11-2.82-7.67-4.21A5.66,5.66,0,0,0,394.73,299.4Zm9.69,6.56c-.08-.55-.57-.87-1.07-1.2a4.75,4.75,0,0,1,2.44.56Zm35.4,21.93c-4.07-.79-8.1-1.86-12.13-2.84-3.5-.85-7-1.63-10.52-2.47.54-.18,1.06-.37,1.6-.54a17.5,17.5,0,0,0,7.53-4.84,14.78,14.78,0,0,1-4.32,4.28c-.41.26-.29,1,.27,1,3.19-.33,5.93,1.36,8.81,2.44a21.21,21.21,0,0,0,7.68,1.3,22.09,22.09,0,0,0,13.07-4.63,2.88,2.88,0,0,1-.25,1c-.22.49.16,1.27.8,1a27.77,27.77,0,0,0,8.4-4.93c.67-.56-.31-1.54-1-1a22,22,0,0,1-6.56,4,4.13,4.13,0,0,0-.17-1.76.74.74,0,0,0-1.22-.32,20.75,20.75,0,0,1-21.75,3.66,22.7,22.7,0,0,0-6.23-1.93,14.26,14.26,0,0,0,2.66-2.77,22.48,22.48,0,0,0,2.45-5.23c.25-.61-.65-1.05-1.07-.62-1.32,1.38-2.4,3-3.76,4.32a13.72,13.72,0,0,1-5.37,3.21l-4.63,1.57L414,322c-2.28.79-4.53,1.63-6.75,2.63-3.87,1.76-7.63,3.79-11.34,5.87-3.51,2-7.07,4.5-11,5.63-3.44,1-8.05.31-9.13-3.68s1.64-7.52,4.41-10c6.16-5.57,13.7-9.52,21.11-13.13,2-1,4.23-2,6.37-3.22a.92.92,0,0,0,.32-.18c4.23-2.44,8.06-5.59,9.1-10.41.14-.67-.88-1-1-.29-1,4.26-4.31,7-8.1,9.06a19.61,19.61,0,0,0-1.38-2.85,15.39,15.39,0,0,1-1.44-4.63,35.12,35.12,0,0,1,.33-10.13.74.74,0,0,0-1.35-.57,14.24,14.24,0,0,0-2.47,4.88,14.61,14.61,0,0,0-.43,2.36c-.08.85.07,2-.47,2.76-.11.14-.89.69-1.13.31s.25-.88.35-1.14a15.4,15.4,0,0,0,1.11-8.27c-.13-1-.49-2.36-1.76-2.19s-1.25,1.7-1.16,2.68a31.24,31.24,0,0,1,.07,6c-.2,2.09-1.2,5.21-3.92,4.72a.64.64,0,0,0-.81.61,4.29,4.29,0,0,1-1,2.81,7.36,7.36,0,0,1-.54.6l-.76-.41-.08-.25.45-.61a13.69,13.69,0,0,0,2.06-3.84,13,13,0,0,0-.17-8.84c-.19-.51-1-.3-.83.23a12.94,12.94,0,0,1,.25,7.32,11.94,11.94,0,0,1-1.42,3.3c-.4.66-1.08,1.3-1.47,2-3.46-1.88-6.92-3.76-10.34-5.71l-4.17-2.4c2.17-2.52,5.29-4,7.6-6.44,2.78-2.91,4.68-6.54,7.52-9.39a12.39,12.39,0,0,1,5.15-3.31,11.18,11.18,0,0,1,6.35.35c4.16,1.26,8,3.2,12.29,3.91s8.8.76,13.16,1.48A47.47,47.47,0,0,1,439.27,283a41.81,41.81,0,0,1,18.14,15.35,38,38,0,0,1,5,11.8c.9,3.86,1.31,8.12-.14,11.87a.79.79,0,0,0-1.31.06C456.28,329.3,447.42,329.35,439.82,327.89Zm65.95-30.48a22.12,22.12,0,0,1-2.94,1.42q-3.07,1.4-6.08,3A129.43,129.43,0,0,0,473,317.7c-1.9,1.6-3.72,3.28-5.56,4.95s-4.44,3.55-7,2.63c.32-.31.62-.65.91-1l.06.23a1,1,0,0,0,1.71.23c4.21-7.06,1.48-16.83-1.93-23.66A42.45,42.45,0,0,0,444,283.28c-1.09-.61-2.2-1.17-3.34-1.7,5.67-3.08,11.27-6.34,16.79-9.67a87.13,87.13,0,0,0,15.25-11.41c2.05-1.95,4.28-4.09,7.13-4.74a7.34,7.34,0,0,1,1.73-.16.81.81,0,0,0,.68,0,10.83,10.83,0,0,1,5.52,2.55,48.35,48.35,0,0,1,5.94,6.28c2.24,2.65,4.45,5.35,6.42,8.21,4.21,6.12,7.36,13.14,7.13,20.7a1.06,1.06,0,0,0,1.32,1,4.83,4.83,0,0,0-.71.59C507.09,295.78,506.74,296.78,505.77,297.41Zm11.75-3c-2.29-.33-5.13-1.3-7.49-.67a4.86,4.86,0,0,0,1.26-4.34,11.13,11.13,0,0,0-1.61-3.63,5.22,5.22,0,0,1-.61-4.78c2.09-6.09,3.64-12.6.57-18.67a13.54,13.54,0,0,0-5.38-5.76c-1-.57-3.33-.88-3.79-2-.59-1.48.69-2.9,2-3.21,3.17-.72,6.39,1.89,8.09,4.29a18.23,18.23,0,0,1,3.06,9.33,81,81,0,0,1-.46,12.25l-1,13.14a1,1,0,0,0,1.41.81c3.48-1.75,4.39-6.33,5.56-9.68.85-2.46,1.71-4.91,2.57-7.37.5-1.44,1.3-5.3,3.51-4a19,19,0,0,1,7.68,9.25,14.18,14.18,0,0,1,1.15,6.19,7.82,7.82,0,0,1-3.64,5.75A18.13,18.13,0,0,1,517.52,294.39Z"/><path class="cls-3" d="M480,302.51a3.29,3.29,0,0,0-2.94.58c-.73-2.88.59-7-2.71-8.46a.76.76,0,0,0-.76,1.31c1.52.94,1.65,2.72,1.66,4.35a10.84,10.84,0,0,0,.55,3.91c-2.08,1.7-2.78,4.9.3,6.08a4.34,4.34,0,0,0,2.25.24,3.68,3.68,0,0,0,2-.78,4.34,4.34,0,0,0,2.08-3.79A3.7,3.7,0,0,0,480,302.51Zm-2.87,2.81a.56.56,0,0,0,.17-.09c1.08-.56,2.35-.53,2.86,1a2,2,0,0,1-.26,1.76c-1.16,1-3.07,1.45-4.06.13C475.18,307.27,476,306,477.11,305.32Z"/><path class="cls-3" d="M631.56,225.45c-3.21.54-5,3.28-7.12,5.45-1.57,1.6-5.61,3.74-7.06.87-.51-1-2-.12-1.51.89,1.4,2.93,5.18,2.72,7.68,1.48,3.35-1.66,4.88-5.7,8.48-7A.89.89,0,0,0,631.56,225.45Z"/><path class="cls-7" d="M122.65,46s8.1,15.07,12.12,21.76,11.79,21.7,17.1,26.57,21.41,29.26,25.68,34.3,7.07,10.87,9.32,15.93,9.44,17.3,11.92,23.07,7.54,18.69,11.94,20.72,6.81,1.73,6.81,1.73l3.81,8,3.5-.8s6.61-5.71,11.52-7a41.66,41.66,0,0,0,9.75-4.22,56.66,56.66,0,0,1,3.59,7.29c1.18,3.22,4.26,9.43,8,11.35a37.65,37.65,0,0,0,6.65,2.72s4.17,5.7,6.47,6.06a11.53,11.53,0,0,1,3.24.84s2.09,6.05,4.47,8.1L243.66,234.6s29.09,94.79,30,97.3,3,.46,3,.46l53.86-19.27s-17-42.72-18.75-46.37-5.2-14.28-5.2-14.28,3.83-.75,5.83-2.8,6.92-7.69,9.38-12.7,6-10.52,5.63-14.62-6.71-17.55-8.07-21.8-2.5-7.8-10.84-10.44-16.27-5.89-18.37-7.57-12-9.27-15.68-11.86a20.84,20.84,0,0,0-7.92-3.25s2.82-2.93.87-5.59a12.61,12.61,0,0,0-3.82-3.63s1.48-5.16-1.46-8-4.09-4-4.52-7.78-4.06-6.35-5.13-8.2-2.24-5.07-6-11.37-29.26-41.6-31.84-46.71-8.48-19.17-11.43-24S190.37,33,188,28.89s-7.75-17.38-7.75-17.38-3.68-11-4.49-10.13S124.22,44.6,124.22,44.6Z"/><path class="cls-8" d="M290.63,239.3a17.69,17.69,0,0,0-4.5,4.29c-2.58,3.21-.65,5.78.89,7s3.39-.1,5.75-2,3.43-1.29,6.22-1.93,8.43-3.52,8.43-3.52a13,13,0,0,0-1.79,4.59,7.6,7.6,0,0,0,.95,4.78s3.83-.75,5.83-2.8,6.92-7.69,9.38-12.7,6-10.52,5.63-14.62-6.71-17.55-8.07-21.8-2.5-7.8-10.84-10.44-16.27-5.89-18.37-7.57-12-9.27-15.68-11.86a20.67,20.67,0,0,0-7.26-3.12c-3.15,3.43-7.06,7.71-8.72,9.61-2.34,2.68-9.25,7.37-12.18,9.3a55.12,55.12,0,0,1,3.41,7c1.18,3.22,4.26,9.43,8,11.35a37.65,37.65,0,0,0,6.65,2.72s4.17,5.7,6.47,6.06a11.53,11.53,0,0,1,3.24.84s1.8,5.21,4,7.6l1.12.09a4.36,4.36,0,0,1-1.39,2c-1.07.86,0,1.72.59,4.14s-3.32,2-3.32,2-3.7-1.45-6.06-1-1.5,3,1.07,4.93a25.52,25.52,0,0,0,5.36,3s-.86,1.07.15,2.93-.15,1.14,3.71,1.14S290.63,239.3,290.63,239.3Z"/><path class="cls-3" d="M331.52,312.33c-4.16-8.39-7.54-17.14-10.93-25.87s-6.59-17.22-9.93-25.81c-1-2.56-2.07-5.1-3.11-7.65a3.05,3.05,0,0,0,2-.16,10.15,10.15,0,0,0,2.7-2.19c1.06-1,2.08-2.08,3.12-3.13a38.6,38.6,0,0,0,5.26-6.42,79.29,79.29,0,0,0,4.34-8.33c1.21-2.53,3-5.27,3.29-8.11s-1-5.81-1.73-8.44a169.5,169.5,0,0,0-6.37-17.6c-1.06-2.49-2.06-5-4.33-6.57s-5-2.37-7.58-3.27c-3.39-1.2-6.81-2.36-10.15-3.7a45.5,45.5,0,0,1-9.08-5.22c-6.08-4.23-12.14-8.48-18.45-12.37a.62.62,0,0,0-.76.09,3,3,0,0,0-1.2-.36,8,8,0,0,0-4.06-9.7,9,9,0,0,0-.18-4.65c-1-3.36-4.12-5.54-5.22-8.89-.52-1.6-.52-3.33-1.17-4.88a11.59,11.59,0,0,0-2.69-3.5,8.84,8.84,0,0,1-2.35-4.45,14.86,14.86,0,0,0-2.29-4.57c-2.32-3.43-4.62-6.86-6.9-10.32-4.46-6.75-8.89-13.51-13.36-20.25S221,82.81,216.69,75.92s-7.45-14.14-11.05-21.28a216.57,216.57,0,0,0-12.7-21.29c-4.57-7-8.87-14.24-11.69-22.13-.31-.86-1.66-.5-1.37.38C184.37,25.18,193,36.74,200,49c3.78,6.56,6.78,13.51,10.25,20.24a158.1,158.1,0,0,0,12.33,19.33c9.32,13,18.13,26.36,26.91,39.7a16.86,16.86,0,0,1,2,4.62,8.84,8.84,0,0,0,2.29,3.69c1.07,1.09,2.28,2.07,2.8,3.57.57,1.65.66,3.42,1.29,5.07a16.33,16.33,0,0,0,2.23,3.94c1,1.43,2.28,2.82,2.71,4.58.93,3.72-1.24,7.31-3.75,9.86a107.36,107.36,0,0,1-9.09,7.8,85.22,85.22,0,0,1-10.22,7.27,59.5,59.5,0,0,1-5.41,2.88,53.32,53.32,0,0,0-5.53,2.7c-3.1,1.92-6.18,5.11-10,5.2a4.28,4.28,0,0,0-.31-1.5c-.29-.92-.62-1.82-1-2.7a46.1,46.1,0,0,0-4.95-8.76c-4.36-6.31-9.06-12.47-11.94-19.63-.91-2.25-1.47-4.63-2.27-6.92a2.06,2.06,0,0,0,1.08-.73,2.58,2.58,0,0,0,.6-1.91,5.17,5.17,0,0,0,2.8,2,2.58,2.58,0,0,0,.68,0,3.33,3.33,0,0,0-.29.7,4.64,4.64,0,0,0,.24,2.94,4.77,4.77,0,0,0,.93,2.83,3.93,3.93,0,0,0,3,1.41,3.64,3.64,0,0,0,.91.26,4.07,4.07,0,0,0-1.56,4.88,7.46,7.46,0,0,0,5.55,4.67,3.18,3.18,0,0,0,.82,0,3,3,0,0,0-.22.44,5,5,0,0,0,.71,4c1.25,2.3,3.46,4.44,6.13,2.68a6.26,6.26,0,0,0,2.34-7.38,4.71,4.71,0,0,0-4.77-2.76,6.12,6.12,0,0,0-2.13-4.95,7.25,7.25,0,0,0-3.07-2.91,1.7,1.7,0,0,0-.24-.09c2-2.48,1.52-7.32-1.1-9a3.88,3.88,0,0,0-2.93-.64,4.76,4.76,0,0,0-.55-3.13,4.71,4.71,0,0,0-.88-1.63,4.9,4.9,0,0,0-2.87-1.61,4.08,4.08,0,0,0-4.1.71,3.25,3.25,0,0,0-1.23,2.79,4.48,4.48,0,0,0-.15.89,8.61,8.61,0,0,0,.33,2.2c.12.61.44,1.17-.33,1.37-.17.15-.31.19-.41.14a16.6,16.6,0,0,0-1.41-2.58c-.36-.53-.76-1.05-1.17-1.56q-2.44-3.94-4.88-7.91a.79.79,0,0,0-1.43.6c.67,3,2.69,5.28,4.57,7.61l.33.42,1,1.68a24.25,24.25,0,0,0,1.5,2.36,50.47,50.47,0,0,1,1.78,5.33c2,6.33,5.83,11.84,9.63,17.2s7.42,10.9,9.42,17.13c0,.1.29.74.21.83s-1.16.11-1.43.1a6.94,6.94,0,0,1-2.73-.83,13,13,0,0,1-4.2-3.72c-2.38-3.13-4-6.8-5.69-10.32Q197.65,163,192,151.63c-1.88-3.8-3.8-7.57-5.6-11.4a64.52,64.52,0,0,0-5.19-9.66c-2.31-3.29-5-6.34-7.4-9.56s-4.81-6.55-7.23-9.82-4.75-6.41-7.21-9.56-5.21-6-7.76-9.06c-5.78-6.89-9.89-15-14.3-22.84Q130.23,57.25,122.7,45a.61.61,0,0,0-1,.61q6.22,11.74,12.88,23.23c4.23,7.28,8.15,14.92,13.16,21.71,2.31,3.12,5,6,7.5,8.9,2.83,3.25,5.33,6.75,7.84,10.25,4.91,6.82,9.8,13.65,15.1,20.18a55.74,55.74,0,0,1,6,9.81c2,3.92,3.94,7.88,5.89,11.84q5.83,11.87,11.78,23.68c2.86,5.64,6.26,14.7,13.6,15.53a7.85,7.85,0,0,0,1.14.06l0,.06,2.82,5.64c.56,1.11,1.22,3,2.83,2.66a2,2,0,0,0,.72-.33,1.55,1.55,0,0,0,.79.27c.91.06,1.59-.75,2.22-1.28a31.37,31.37,0,0,1,3.44-2.49c4.29-2.71,9-4.56,13.61-6.75.75-.35,1.48-.73,2.21-1.11,2,1.71,2.58,4.49,3.51,6.82a31.09,31.09,0,0,0,4.12,7.6,17.16,17.16,0,0,0,5.63,4.85,16.39,16.39,0,0,0,3.24,1.2c1.16.31,2.5.54,3.1,1.69a1,1,0,0,0,1.1.45l.13,0a5.44,5.44,0,0,0,2.23,2.63c1.46,1,3.45,1.29,4.66,2.62s1.45,3.34,2.46,4.81a11.61,11.61,0,0,0,2.24,2.4c-11.64,3.48-23.18,7.28-34.75,11a1,1,0,0,0-.69,1.23C250,260.5,257.51,286.36,265.84,312c2.36,7.26,4.69,14.54,7.36,21.69a1.09,1.09,0,0,0,1.57.64c9.11-4.07,18.55-7.56,27.93-10.92s18.72-6.51,28.18-9.47A1.09,1.09,0,0,0,331.52,312.33Zm-130-165.91a5.23,5.23,0,0,1-1.63-3.12,3,3,0,0,1,1.4-1.57A2.54,2.54,0,0,1,204.9,143a4.58,4.58,0,0,1,1,1.92,3,3,0,0,1-.59,1.55,2.81,2.81,0,0,1-1.78,1.21C202.65,147.77,202.07,147,201.52,146.42Zm7.38,12.52c1.3-.92,3.35,0,4.5.77,1.36,1.88,2.07,4.43.07,5.46C210.89,166.49,206,161,208.9,158.94Zm7.8,6.91a2.89,2.89,0,0,1,3.66,1.62,4.43,4.43,0,0,1-1.15,4.65c-1.6,1.57-2.85.38-3.74-1.13a6.52,6.52,0,0,1-.92-2c-.25-1.24.85-1.66,1.54-2.43a4.26,4.26,0,0,0,.48-.66A.69.69,0,0,0,216.7,165.85Zm-5.92-16.07c.78,1.61.4,5.39-1.44,5.87l-1.15-.1a3.69,3.69,0,0,1-.53-.26,6.38,6.38,0,0,1-2.31-2.49,4.79,4.79,0,0,1,1.83-4.2A2.42,2.42,0,0,1,210.78,149.78Zm93.7,95.66c.31-.22.62-.45.92-.69a9.13,9.13,0,0,0-.62,1.1A.88.88,0,0,0,304.48,245.44Zm12.4-13.85a16.23,16.23,0,0,1-4.57-1.09,6.75,6.75,0,0,1,4.32.78.64.64,0,0,0,.35.06C317,231.42,316.91,231.5,316.88,231.59Zm-6.33,18.32c-.89.83-1.9,2-3.18,1.17a3,3,0,0,1-.72-.63,3.71,3.71,0,0,1,5.82-2.33Zm6.32-6.42a1.74,1.74,0,0,0-.11-.18l.18.09Zm-85.41-51.76a40.29,40.29,0,0,0-5.93,3.75,12.47,12.47,0,0,0-1.44,1.17c-.08.08-.2.14-.25.2-.07-.2-.38-.76-.44-.87l-.42-.76a16.41,16.41,0,0,0-1.85-3.35,1.11,1.11,0,0,0-1.83,0l-.24-.46c3-.23,5.61-2,8-3.77a31.09,31.09,0,0,1,4.72-2.95c1.71-.83,3.47-1.53,5.17-2.39,6.65-3.38,12.53-8.26,18.2-13.05,3.09-2.61,7-5.87,8.77-9.81a10.05,10.05,0,0,1,2.82,6.93,6,6,0,0,1-1,1.92,50,50,0,0,1-5.12,5.07c-1.74,1.64-3.51,3.25-5.35,4.79a60.25,60.25,0,0,1-11.8,7.88C239.51,188,235.38,189.67,231.46,191.73Zm45.06,27c-.8-1.32-1.08-2.91-2-4.16a7.83,7.83,0,0,0-3.29-2.31c-1.44-.65-3.51-1.42-3.62-3.26,0-.46-.41-1-.94-.94l-.53.06c-1.13-1.67-3.37-1.93-5.19-2.54a14.41,14.41,0,0,1-6.69-5.15,33.83,33.83,0,0,1-4.24-8.21c-.81-2.09-1.55-4.16-3.21-5.63a64.49,64.49,0,0,0,9.74-6.81c2.14-1.8,4.19-3.71,6.21-5.64,1.71-1.64,3.74-3.27,5.05-5.29a1.54,1.54,0,0,1,1.69.24.65.65,0,0,0,.87-.12c4.55,3.49,9.25,6.78,14,10s9.23,6.54,14.67,8.46c2.76,1,5.54,1.9,8.3,2.88,2.45.86,5.12,1.56,7.26,3.07,2.38,1.69,3.37,4.58,4.45,7.17s2.17,5.45,3.14,8.22,1.82,5.4,2.61,8.13,2.14,5.8,1.46,8.55a3.53,3.53,0,0,0-.81-.09c.09-.52.17-1,.27-1.56s-.52-.56-.6-.17c-.13.67-.27,1.33-.41,2a.35.35,0,0,0,.33.43c.56,0,.82.21.9.47a27.9,27.9,0,0,1-1.57,3.62c-.77,1.37-1.53,2.75-2.31,4.12-1.51,2.64-3.07,5.25-4.74,7.79l-2.83-1.56a.68.68,0,0,0-1,.76,3.26,3.26,0,0,0,1.1,1.59c.66.57,1.58,1.08.82,2-.52.64-1.47.85-2,1.5a2.37,2.37,0,0,0-.34.53,4.94,4.94,0,0,0-7,1.78,7.69,7.69,0,0,1,2.11-4.42c1.89-2.16,4-4.18,6-6.25a20.76,20.76,0,0,0,3.95-5c.07-.11.16-.22.23-.34a.62.62,0,0,0,.08-.37c.08-.2.15-.39.21-.59.81-2.7-.27-5.74-.9-8.37-.77-3.27-1.7-6.5-2.45-9.78-.37-1.64-.69-3.28-1-4.93a24.17,24.17,0,0,1-.72-5.35c0-.13-.19-.12-.2,0a32.23,32.23,0,0,0-.23,4.5,27.74,27.74,0,0,0,.75,4.6c.68,3.18,1.24,6.38,1.9,9.57.33,1.56.66,3.12,1,4.68a12.22,12.22,0,0,1,.43,3.59,8.45,8.45,0,0,0-7-.54.68.68,0,0,0-.16,1.22,16.65,16.65,0,0,0,6.23,2,17.66,17.66,0,0,1-3.08,3.63l-.6.54c-2,1.71-4.09,3.36-6.14,5-1.89,1.55-3.74,3.1-6.23,3.47-1.77.26-3.55.27-5.12,1.15a4.79,4.79,0,0,0-3.56-1,7,7,0,0,0-5.16,1.88l-.05.06a3.29,3.29,0,0,1,.27-2.4c.88-1.87,2.7-3.11,4.43-4.12a25.51,25.51,0,0,1,4.7-2.22c1.4-.27,2.83-.27,4.23-.64a4,4,0,0,0,2.28-1.45,4.22,4.22,0,0,0,.46-.38,6.23,6.23,0,0,0,1.59-4.73c0-2.34-.46-4.61-.24-7a20.58,20.58,0,0,1,2.22-7.75.69.69,0,0,0-1.19-.7,19.78,19.78,0,0,0-3.84,10.39,36.42,36.42,0,0,0,.16,5.91c.12,1.63-.11,2.94-1.25,3.67l-.4.14c-.43.14-.87.25-1.3.35a.63.63,0,0,0-.27,0,3.13,3.13,0,0,1-2.41-.65c-.63-.4-1.31-.68-1.94-1-.36-.22-.63.3-.32.53.67.5,1.41,1.24,2.22,1.75a12.52,12.52,0,0,0-2.3.68c-2,.82-3.84,1.75-6,1.86a46.6,46.6,0,0,0-6.24.51,18.6,18.6,0,0,1-3.7.5,2.12,2.12,0,0,1-1.89-.73,1.36,1.36,0,0,1,.7-2.06,5.26,5.26,0,0,0,3.23-.07c1.82-.63,3.65-1.37,5.42-2.14a8.59,8.59,0,0,0,3.8-2.81,6.53,6.53,0,0,0,.93-3.89.35.35,0,0,0,.17-.32c0-4.7,1.79-9.29,5.82-11.91a.61.61,0,0,0-.62-1.06,14.28,14.28,0,0,0-6.37,7.35,13.75,13.75,0,0,0-.7,5.44c.05,2.37-.55,3.94-2.69,5.11a46.86,46.86,0,0,1-5.56,2.32,4.59,4.59,0,0,1-3.12.32,6.14,6.14,0,0,1-2.32-3.8.6.6,0,0,0-1-.26,2.08,2.08,0,0,0-.08,2.68c-1.5-.58-4.73-1.5-4.3-3.48.51-2.31,3.34-1.95,5.26-1.5l0,.05a.75.75,0,0,0,1,1,8.24,8.24,0,0,0,3.22-2.86c.62-1.14,0-4.19,1.56-4.43.76-.11.79-1.22.2-1.56A10.09,10.09,0,0,1,276.52,218.75Zm14,28.63c.14,0,.27,0,.41-.06s1.73-.07,1.77.21-1,.81-1.33.95a4.53,4.53,0,0,1-3.89.34A15.2,15.2,0,0,1,290.47,247.38Zm-16.23-12,.1.15-.2-.08Zm27.69,86.24c-9.06,3.33-18,7-27,10.4-3.92-12.52-8.09-25-12-37.48-4-12.82-8-25.64-12-38.43-2.22-7-4.38-13.95-6.54-20.94,11-3.6,22.1-7.12,33.07-10.93a5,5,0,0,0-.16.77,6.29,6.29,0,0,1-.54,2.94,4.32,4.32,0,0,1-1,1,1,1,0,0,0-.24-.15c-1.76-.55-3.71-1.11-5.51-.41a4.06,4.06,0,0,0-2.64,3c-.52,3.51,4.67,4.87,7,5.9l.54.22a2.68,2.68,0,0,0,1.37,4.47c1.84.45,3.95-.17,5.77-.48a50.37,50.37,0,0,1,5.62-.29,7.67,7.67,0,0,0-3.17,4.94,4,4,0,0,0,2.56,4.37c2.1.79,4.35-.06,6.14-1.22a2.36,2.36,0,0,0,1.09-1.37,2.4,2.4,0,0,1,.24.22.74.74,0,0,0,.9.11c1.86-1.31,4.2-.94,6.31-1.49a7.55,7.55,0,0,0,1.44-.56,1,1,0,0,0,.07.28c.33.79.64,1.6,1,2.4a4.45,4.45,0,0,0,.55,1.83c.1.16.2.31.31.46,1.08,2.93,2.08,5.9,3.16,8.82,1.59,4.3,3.18,8.6,4.8,12.89,3.34,8.78,6.65,17.58,10.23,26.27q2.71,6.62,5.88,13.05Q315.44,316.62,301.93,321.57Z"/><path class="cls-9" d="M133.25,296.09c-6.07-.33-6.75-3-10.46-4S110.65,281.92,109,280.58s-6.07-7.76-14.5-11.81-27-15.86-31-19.9-8.77-6.08-12.48-10.8-5.06-5.4-8.1-6.07-10.12-1.35-17.54-6.75S0,210.75,0,210.75l74.87-52c3.81.54,8.15,3.8,16.85,7.06s12.49,10.86,17.38,14.67,7.06,2.71,10.32,5.43,4.89,8.69,10.87,12.5,26.07,18.47,31.51,22.81,19,14.13,19,14.13l4.89,8.15s2.72,2.17,14.67,2.71,16.84-1.08,23.36-3.26,13.58-3.8,17.38-1.63,8.7,11.41,13,15.76L265,268c2.17,2.18,3.8,5.44,4.34,10.32s1.09,11.41,1.09,11.41,63,25.54,73.34,28.25,19,6,19,6-9.77,30.42-13,38-9.24,24.44-9.24,24.44-69.54-22.27-77.14-25-34.77-13-34.77-13l7.06-22.28,1.63-7.6-1.61-1.78s-1.13,4.09-2.82,5.07-2.53.7-3.8-1.13a11,11,0,0,1-1.54-2.81,11,11,0,0,1-5.63,1.41c-3.1-.14-4.23-2.39-3.24-4.51s4.5-5.06,7.88-8,5.21-4.08,4.79-3.94a25.07,25.07,0,0,1-6.76.85c-4.5.14-6.9,2-8.73,1.26s-4.5-1.83-2.53-4.22a28.09,28.09,0,0,1,5.49-4.64s-4.22-.29-6.19-.57-16.33-2.11-22.24-7.17-11.54-10.42-14.21-12.11a24.27,24.27,0,0,0-5.77-2.53,96.31,96.31,0,0,1-8.59,11.26c-4.92,5.49-4.22,5.63-6.89,7.74s-2,1.55-5.07,1.55-7-3-7-3a5.22,5.22,0,0,1-3.24,4.36c-3.09,1.27-3.37,1.55-5.34,1.13"/><path class="cls-2" d="M326.5,350.66l3.94-11.81,16.23,4.68-5.16,13.77S326,352.14,326.5,350.66Z"/><path class="cls-2" d="M163.11,270.75s1.4-3.5,8.92-13.47,10.85-13.12,10.85-13.12a45.7,45.7,0,0,0,14.88,2.1c7.69-.35,15.39.52,22.22-2.1a51.1,51.1,0,0,1,16.62-3.68c3.5,0,8.57,3,11.72,8.23s11.38,13.47,14.52,17.14,5.6,4.55,6.3,10,1.6,13.55,1.6,13.55l-14.37-4.28s-6-3.15-6.82-1.4l-.88,1.75s10.85,4,14.35,5.95,5.77,3.5,5.77,6.82-1.22,6.48-5.77,7.35-19.6-4.72-19.6-4.72-3,7-4.72,12.77-4.73,8.22-4.73,8.22a8.08,8.08,0,0,1-3.32.53,8.79,8.79,0,0,1-2.1-3.32,12,12,0,0,0-.37-1.54s-3,2.06-4.88,2.06-3.32.87-4-1.22-1.93-2.63,2.8-7.18a98,98,0,0,1,8.74-7.52,53.73,53.73,0,0,0-9.44.52c-3.33.7-2.63,1.4-5.25,1.4s-4.56-2.78-2.81-4.89a33.44,33.44,0,0,1,5.49-4.64,75.06,75.06,0,0,1-11.43-.79c-5.08-.88-13.52-3.24-17-6.95s-9.77-8.27-12-10.9-7.17-5.77-10.32-5.77A11.76,11.76,0,0,1,163.11,270.75Z"/><path class="cls-3" d="M363.22,322.71q-23.19-7.24-45.86-15.92c-14.14-5.39-28.18-11.06-42.41-16.2-.9-.33-1.81-.64-2.72-1a4.74,4.74,0,0,0-.05-.65c-.41-3.16-1-6.29-1.51-9.44a28.69,28.69,0,0,0-2.07-7.78,19.76,19.76,0,0,0-5.15-6.14,55.48,55.48,0,0,1-5.77-5.6c-1.78-2.08-3.38-4.31-5-6.53-3.08-4.3-6.17-8.88-10.37-12.17-2.37-1.86-5-1.85-7.89-1.59a62.26,62.26,0,0,0-9,1.61c-6.86,1.67-13.54,3.7-20.64,4.13a65.83,65.83,0,0,1-20.16-1.95.66.66,0,0,0,.11-.35,3.22,3.22,0,0,0,1.39.46c1.1.12,1.22-1.35.51-1.86a14.75,14.75,0,0,1-1.94-1.65l-.08-.13a13.09,13.09,0,0,0-1.21-1.91,2.18,2.18,0,0,1,.5-2.06c.5-.59.23-1.77-.7-1.69l-2.33.2q-19.62-16-40.23-30.8c-3.33-2.37-6.78-4.63-9.93-7.23A37.23,37.23,0,0,1,127,193c-1.33-1.45-2.4-3.11-3.68-4.61-2.47-2.88-6-4.06-9.13-6.13-3.3-2.22-6.1-5.08-9.1-7.68A80.92,80.92,0,0,0,83.37,161c-.87-.37-1.49,1.1-.64,1.51a97.3,97.3,0,0,1,20,12.83c3,2.53,5.76,5.33,8.89,7.7a34.52,34.52,0,0,0,4.86,3.06,17.37,17.37,0,0,1,4.88,3.37c1.28,1.38,2.28,3,3.5,4.43A34.44,34.44,0,0,0,129,197.9c3.09,2.57,6.45,4.8,9.71,7.13q10.59,7.53,20.91,15.4,5.93,4.51,11.78,9.12c2,1.54,3.89,3.11,5.85,4.64.46.36.93.79,1.41,1.19a40.47,40.47,0,0,0-12.24,6.9c-4.47,3.67-7.88,8.35-11.22,13-3.7,5.17-7.4,10.34-10.95,15.62-3.25,4.84-6.89,9.82-8.61,15.46-.71,2.32-1.7,6.17-.26,8.4a3,3,0,0,0,.4.46,15.14,15.14,0,0,1-7.09-1.81,71,71,0,0,1-13.55-8.91c-4-3.4-7.37-7.36-11.27-10.82a67.29,67.29,0,0,0-13.23-8.75,199.34,199.34,0,0,1-26.8-16.71A159.64,159.64,0,0,1,51.61,238c-1.85-1.71-3.57-3.65-5.58-5.18s-4.42-1.64-6.9-2.21c-3.05-.7-5.77-2.33-8.49-3.79-3-1.6-5.91-3.2-8.87-4.77L4,212.56c-.58-.3-1.08.55-.51.87l16.12,9.14,8.07,4.55c2.52,1.41,5,2.93,7.64,4.1a18.5,18.5,0,0,0,3.3,1.17,40.91,40.91,0,0,1,4.27.88c2.5.88,4.36,3.42,6.21,5.21a164,164,0,0,0,12.4,10.87A178.05,178.05,0,0,0,89,266.89a65.61,65.61,0,0,1,13.84,9.2c4,3.62,7.48,7.7,11.64,11.09a68.33,68.33,0,0,0,7.62,5.26,50.81,50.81,0,0,0,8,4.36c4.51,1.74,10.69,1.19,13.09-3.62a17.05,17.05,0,0,0,7.05,2.21c3.8.2,6.33-1.93,8.53-4.78l8.56-11.06c1.15-1.49,2.69-3,3.5-4.7a3.56,3.56,0,0,0,.31-1c8,4,13.63,12.63,21.31,17.09,7.19,4.19,15.44,5.22,23.64,6-2.2,1.15-4.24,2.87-4.53,5.16-.41,3.27,3.3,4.29,5.83,3.68.89-.21,1.73-.57,2.61-.83a12.58,12.58,0,0,1,3.61-.44,49.83,49.83,0,0,0,5.33-.32,82.33,82.33,0,0,0-8.22,7.16c-1.26,1.26-2.7,2.66-3.06,4.49a3.54,3.54,0,0,0,1.92,3.82,6.83,6.83,0,0,0,7.92-1.37,6.13,6.13,0,0,0,2.74,4.65c3.52,2.12,5.55-4.16,6.35-6.45q2.6-7.45,5.22-14.92l.42.15c-2.4,6.27-4.79,12.55-6.8,18.95-1.41,4.49-2.65,9-4,13.55s-2.77,9-4.09,13.47a.86.86,0,0,0,.39,1,.84.84,0,0,0,.55.88c14.84,5.37,29.73,10.58,44.56,15.95,13.32,4.83,26.64,9.65,40.08,14.13q13.44,4.47,27,8.62a2.24,2.24,0,0,0,1.53-.28,79.48,79.48,0,0,0,3-8q1.24-3.5,2.55-7,2.13-5.66,4.37-11.27c2.73-6.89,5.45-13.78,7.79-20.81,1.88-5.66,3.59-11.37,5.23-17.11A.94.94,0,0,0,363.22,322.71ZM232.86,278.44l-.12-.38.07.06C232.83,278.23,232.84,278.33,232.86,278.44Zm1.43.34a2.47,2.47,0,0,0,1.11,0c1.83-.52,2.22-2.53,2.49-4.18a3.12,3.12,0,0,0,.7.92c1.27,1.15,2.77.52,4.23.23a7.49,7.49,0,0,1,3.67.22,3.17,3.17,0,0,1,2.15,1.59,10.84,10.84,0,0,0,9.91,5.26,3,3,0,0,0-.67.84,3.44,3.44,0,0,0-.28.74c-3-1.08-6.2-1.92-8.79-.28a.84.84,0,0,0-.41.83,55,55,0,0,1-6.15-1.71,57,57,0,0,1-7.87-3.37.71.71,0,0,0,0-.2C234.38,279.34,234.33,279.06,234.29,278.78Zm21,6.84c.81.25,1.61.53,2.41.81a.32.32,0,0,0,0,.09c-2.26-.48-4.56-.73-6.82-1.12-.16,0-.31-.07-.47-.09A7.32,7.32,0,0,1,255.25,285.62Zm-73.71-49.08a1.92,1.92,0,0,0,0,.22,4.36,4.36,0,0,0-1.13-.17l.19-.07A3.89,3.89,0,0,0,181.54,236.54Zm-44.48,54.19a21,21,0,0,1,2.13-7.43c2.25-4.76,5.35-9.15,8.29-13.5,3.07-4.55,6.25-9,9.42-13.52,3-4.2,6-8.4,9.85-11.83a40.49,40.49,0,0,1,9.43-6.15,35.87,35.87,0,0,0-3.67,3.73q-2.87,3.09-5.63,6.27a287.23,287.23,0,0,0-20.33,26.18c-3.23,4.71-6.26,9.74-7.2,15.46a1.15,1.15,0,0,0,.5,1.23c.36.24.73.48,1.11.71a22.18,22.18,0,0,1-2.74,1.32c-.61.21-1,.32-1.15-.43A10.69,10.69,0,0,1,137.06,290.73Zm12.24,2.53a21.78,21.78,0,0,1-7.69-3.53c.92-4.62,3.19-8.74,5.78-12.63,2.83-4.28,5.87-8.43,9-12.51s6.51-8.31,9.93-12.33a146.91,146.91,0,0,1,10.51-11.65,6,6,0,0,1,3.41-1.93c1.2-.06,1.81.91,2.35,1.82a14,14,0,0,0,1.15,1.73,1,1,0,0,0-.54.21c-12.26,10-20.09,24-26.54,38.21-1.83,4.05-3.6,8.13-5.28,12.24a.7.7,0,0,0,0,.47A7.38,7.38,0,0,1,149.3,293.26Zm14.21-11.71-2.24,2.89c2.33-3.77,4.51-7.66,7.91-10.49C168.18,276,164,280.91,163.51,281.55Zm27.11,5.88c-6.54-4.77-12.16-12.26-19.78-15.26a2.12,2.12,0,0,0-.62-.56.86.86,0,0,0-.89,0l0,0a18.3,18.3,0,0,0-5.14-.77.5.5,0,0,0,0,1,19.55,19.55,0,0,1,3.89.75c-3,2.59-5.14,6-7.22,9.39-1.84,3-3.75,6.13-6.41,8.46,5.81-13.11,11.69-26.27,20.87-37.42a72.21,72.21,0,0,1,7.93-8.19c.06,0,.1.06.17.08a65.7,65.7,0,0,0,34,.56c5.58-1.34,11.11-3.15,16.84-3.71a16.55,16.55,0,0,1,4.39-.08,7.63,7.63,0,0,1,3.75,2.28,46,46,0,0,1,5.1,5.7c3,3.94,5.69,8.17,8.95,11.93a50.54,50.54,0,0,0,5.47,5.28,18.68,18.68,0,0,1,5.07,5.84,31.16,31.16,0,0,1,2.09,7.79c.54,2.85,1.15,5.69,1.66,8.54q-4.74-1.69-9.5-3.37c-.65-.23-1.36-.5-2.09-.79a2.4,2.4,0,0,1,.2-.64A3.19,3.19,0,0,1,261,282.9c1.27-.65,2.6-1.21,3.36-2.48.37-.62-.39-1.46-1-1a9.65,9.65,0,0,1-11.88-.86,7.86,7.86,0,0,1-1.34-1.69c-.38-.65-.47-1.1-1.12-1.5a8.93,8.93,0,0,0-4.71-1.31,9.51,9.51,0,0,0-2.25.29c-1,.26-2.1.71-2.77-.41-.9-1.49-.16-3.3.24-4.79a6.08,6.08,0,0,0-.17-4.61.8.8,0,0,0-1.44.19q-.52,3.12-1,6.25c-.27,1.71-.23,4-1.08,5.54a1.3,1.3,0,0,1-1.71.71,42.72,42.72,0,0,0-2.31-8.23c-.3-.75-1.52-.45-1.24.34.65,1.83.15,3.83.47,5.69a9.21,9.21,0,0,0-1.37-1.27.68.68,0,0,0-1,.58,7.09,7.09,0,0,0,.81,2.63c-1.12-.72-2.22-1.46-3.3-2.25-.56-.4-1.39.42-1,1a11.54,11.54,0,0,0,6.6,4.35,57.86,57.86,0,0,0,8.44,3.85,57.06,57.06,0,0,0,7.45,2.15c-1,.18-1.93,1.49-2.42,2.26-.63,1-1.22,2-1.77,3a6.22,6.22,0,0,0-.09-.95c-.07-.37-.71-.29-.67.1a8.49,8.49,0,0,1-.18,2.77c-.27.58-.51,1.17-.74,1.76s.59.81.9.37h0c.9-1.77,1.8-3.51,2.83-5.21q.38-.65.78-1.26c.16-.24.61-1.16.93-1.24,1.53-.39.14,2.14,0,2.42-.5.89-4.18,5.93-1.29,6.21,1.28.12,1.86-1.57,2.34-2.44,1-1.76,2.26-3.57,4.22-4.33.74-.29,2.2-.69,2.69.14a6.55,6.55,0,0,1,.21.82,3.3,3.3,0,0,0,.39.65,5.74,5.74,0,0,0-2.81,2.91,4.09,4.09,0,0,0-.15,3.18c.52,1,2.22,2,3.21,2.6,2.24,1.36,5,2.21,7.58,1.23a5.86,5.86,0,0,0,3.73-4.06,4.07,4.07,0,0,1-.07,3.55A7,7,0,0,1,262,304.2a19,19,0,0,1-7.89-.78c-2.54-.65-5-1.47-7.52-2.33l-4.41-1.5a.87.87,0,0,0-.44-.34,7.92,7.92,0,0,0-.91-.21,4.69,4.69,0,0,0-1.46-.37,66,66,0,0,0-7.74-2c-4.57-.84-9.21-1.22-13.84-1.63C208.31,294.23,198.51,293.17,190.62,287.43Zm79.94,3.63a1.77,1.77,0,0,1-1.63.78c-1.4,0-2.54-1-3.57-1.81a17.93,17.93,0,0,0-2.93-1.91Q266.51,289.57,270.56,291.06Zm-15.65,4.43c-.62.31-.08,1.21.54.93a4,4,0,0,0,2.37-3.49,4.4,4.4,0,0,0-.06-.73,2.44,2.44,0,0,1,.26-.06c2.53-.25,5.17,1,7.2,2.43a7.12,7.12,0,0,1,1.16,1,.63.63,0,0,0-.19.4c-.19,2.34-2.55,3.79-4.74,3.91-2.46.14-5.12-1.36-6.89-3-.81-.76-.45-1.93.11-2.79a4.29,4.29,0,0,1,1.71-1.48A2.81,2.81,0,0,1,254.91,295.49Zm-33.28,7.27a21.26,21.26,0,0,0-4.06,1.05c-1.15.34-2.74.65-3.72-.29-1.44-1.36.72-3.28,1.78-4.07a12.8,12.8,0,0,1,4.17-2,1,1,0,0,0,.32-.17l4.23.4a80.45,80.45,0,0,1,11.33,2l-.15.11a22.15,22.15,0,0,0-3.45,2c-.27.06-.53.13-.8.18C228.05,302.64,224.87,302.43,221.63,302.76Zm5.26,13.76a5.7,5.7,0,0,1-3.42,2.05c-1.29.22-3.26,0-3.94-1.28-.82-1.55.88-3.23,1.89-4.25s2.29-2.26,3.48-3.34q3-2.68,6.21-5.06a23.94,23.94,0,0,0-3.52,9.29,17.58,17.58,0,0,0-.2,2.35A.66.66,0,0,0,226.89,316.52Zm9-2.94a34,34,0,0,1-2.45,6.26c-.56.94-1.35,2.27-2.57,1.51a4.06,4.06,0,0,1-1.51-2.32c-1.11-3.69.31-8.24,2-11.56a24.32,24.32,0,0,1,2.72-4.28,41,41,0,0,0,6.12-2.19l.09,0Q238.09,307.32,235.89,313.58ZM353.63,350c-2.6,6.9-5.43,13.71-8.05,20.6-.94,2.47-1.87,4.95-2.77,7.44-1,2.66-2.12,5.4-2.85,8.16q-22.35-6.9-44.38-14.73c-13.36-4.73-26.64-9.68-40-14.39-8.73-3.09-17.48-6.11-26.32-8.88,3.78-11,6.58-22.4,10.31-33.47,1.4-4.15,2.86-8.28,4.32-12.41,4.91,1.75,10,3.69,15.17,4,4.65.28,10.05-2.07,10.39-7.35.31-5-6.25-8.35-10.51-8.5a6.68,6.68,0,0,0-1.79.18,10.81,10.81,0,0,1-.62-1.33,2.26,2.26,0,0,0-.48-.87c-1.13-1.13-3.28-.61-4.53,0a10.65,10.65,0,0,0-4.45,4.77c-.12.21-.61,1.52-.88,1.52,0,0,.6-1.42.71-1.61.5-.91,1.12-1.75,1.59-2.68.56-1.09,1.49-3.22.19-4.13l-.1,0c2.66.53,5.37.79,8,1.31a16.9,16.9,0,0,1,7.68,3.28c1.58,1.27,3.27,2.71,5.45,2.27a2.84,2.84,0,0,0,2.14-1.53l1.67.61q10.76,4,21.47,8.16c13.62,5.27,27.21,10.64,41,15.54,8.65,3.08,17.36,6,26.12,8.73C359.54,333.13,356.78,341.61,353.63,350Z"/><path class="cls-3" d="M339.07,364.22a34.74,34.74,0,0,0-3.35-1l-7.16-2.06-3.21-.93a4,4,0,0,0-2.55-.13,2.5,2.5,0,0,0-1.37,1.81c-.38,1.24-.67,2.51-1,3.76-.73,2.76-1.38,5.54-2.08,8.31a.65.65,0,0,0,1,.71c4.44.74,8.37,3.12,12.71,4.23,1.54.4,3.38.94,4.26-.8a45.05,45.05,0,0,0,2.09-6.49c.34-1.09.68-2.18,1-3.28.27-.88.89-2,.74-3A1.49,1.49,0,0,0,339.07,364.22Zm-1.21,3.46c-.19.59-.37,1.18-.55,1.77L336.2,373c-.37,1.18-.72,2.36-1.11,3.53-.26.8-.25,1.16-1.14,1.1a9,9,0,0,1-1.45-.35c-4.26-1.13-8.15-3.48-12.52-4.16.59-2,1.19-4,1.78-5.94.37-1.24.72-2.5,1.07-3.74.11-.38.18-1.25.45-1.49.51-.44,1.3-.05,1.85.1,2.31.64,4.62,1.3,6.93,2l3.46,1,1.49.42,1,.29c.46,0,.6,0,.41.26C338.53,366.2,338,367.37,337.86,367.68Z"/><path class="cls-3" d="M348,337.51a39.91,39.91,0,0,0-6.45,3.82l-3.17-1-2.3-.7q-1.44-3.22-2.82-6.48c-.32-.78-1.68-.22-1.37.57.69,1.77,1.4,3.52,2.11,5.28a10.23,10.23,0,0,0-3.42-.91c-.76.05-1,.62-1.3,1.26-.52,1.31-1,2.66-1.4,4a46.65,46.65,0,0,0-1.85,8,.63.63,0,0,0,.13.46.61.61,0,0,0,.39.64l8,3.07,4,1.53c.82.31,2.09,1.13,3,.75a1.91,1.91,0,0,0,.84-.94c.5.51,1.19-.06,1.1-.66a6.79,6.79,0,0,0-.33-1.29c.46-1.06.91-2.12,1.34-3.2,1-2.54,1.91-5.12,2.76-7.72a.89.89,0,0,0-.62-1.08l-2.62-.83a57.42,57.42,0,0,0,4.85-3.22A.78.78,0,0,0,348,337.51Zm-8.39,5.18-.56.4c-.37.25-.72.53-1.08.79l-.87-1.95ZM341,356c0,.36-.08.45-.33.26-.44.05-1.34-.49-1.75-.64l-1.5-.55-3.51-1.27-6.41-2.31c.62-2.24,1.16-4.5,1.86-6.72.34-1.12.72-2.22,1.12-3.32l.35-.93c.3-.3.31-.48,0-.53s-.19-.09.35.09l1,.31,2.78.85c.51,1.22,1,2.45,1.56,3.67-1.91,1.42-3.79,2.86-5.62,4.37-.8.65.33,1.73,1.12,1.12,1.7-1.33,3.45-2.6,5.21-3.86q1,2.39,2.13,4.74c.59,1.27,1.14,2.77,1.9,4.06C341.14,355.6,341.05,355.82,341,356Zm4.26-11.7q-.94,3-2,6c-.32.87-.65,1.73-1,2.59-.4-.79-.82-1.56-1.16-2.3-.78-1.7-1.57-3.39-2.34-5.09l1.65-1.16c.5-.34,1-.67,1.53-1Z"/></g></g></svg>